<?xml version="1.0" encoding="utf-8"?>
<!-- Generator: Adobe Illustrator 22.1.0, SVG Export Plug-In . SVG Version: 6.00 Build 0)  -->
<svg version="1.1" id="Calque_1" xmlns="http://www.w3.org/2000/svg" xmlns:xlink="http://www.w3.org/1999/xlink" x="0px" y="0px"
	 viewBox="0 0 1000 1000" style="enable-background:new 0 0 1000 1000;" xml:space="preserve">
<style type="text/css">
	.st0{fill:#F2F2F2;}
	.st1{fill:#FF0000;}
	.st2{fill:#F2AF81;}
	.st3{fill:#FFB886;}
	.st4{fill:#554C44;}
	.st5{fill:#DD4A4A;}
	.st6{fill:#3A3A3A;}
	.st7{fill:#F7F7F7;}
</style>
<circle class="st0" cx="503.4" cy="500" r="496.3"/>
<g id="Calque_1_1_">
	<g>
		<path class="st1" d="M632.5,727.1C632.5,726.2,632.5,726.2,632.5,727.1C632.5,726.2,631.5,726.2,632.5,727.1L632.5,727.1z"/>
		<path class="st1" d="M375.7,644.5c0-1.9,0-2.9,0-3.8C375.7,641.7,375.7,643.6,375.7,644.5z"/>
		<path class="st2" d="M509.5,675.3l1,1c0,0,0-1,1-1c56.6-43.2,81-73,92.7-83.5c-6.8-14.4-9.8-28.8-9.8-41.3
			c-1.9,2.9-3.9,4.8-6.8,7.7c-31.2,27.8-42.9,38.4-77.2,38.4s-45.9-10.6-77.2-38.4c-3.9-3.8-7.8-7.7-9.8-11.5
			c-1,12.5-2.9,27.8-8.7,43.2c1,0,1,1,1.9,1C425.5,599.4,449,630.1,509.5,675.3z"/>
		<path class="st3" d="M509.5,596.5c34.2,0,44.7-6.5,76.1-34.3c2.9-1.9,7-7.4,9-10.3c25.4-32.6,11.7-86.9,30.2-86.9
			c28.3,1,40.1-23,33.2-53.8c-3.9-16.3-14.6-17.3-22.5-14.4c-2.9,11.5-7.8,24-9.8,23c-4.9-1-2.9-39.4,4.9-82.6
			c7.8-47.1-51.8-26.9-92.7-27.8c-41-1-139.6-9.6-146.4,12.5c-7.8,22.1,10.8,90.3,4.9,92.1c-2.9,1-6.8-6.7-9.8-16.3
			c-7.8-4.8-20.5-3.8-24.4,13.4c-6.8,30.7,5.9,54.7,33.2,53.8c17.6-1,6.8,48,27.4,80.7c2.9,3.8,5.9,8.6,9.8,11.5
			C463.6,586,475.3,596.5,509.5,596.5z"/>
		<path class="st4" d="M395.3,415.1c5.9-2.9-11.7-70.1-4.9-92.1c7.8-22.1,105.5-13.4,146.4-12.5c41,1,99.6-19.2,92.7,27.8
			c-6.8,44.2-8.7,81.6-4.9,82.6c2.9,1,6.8-12.5,9.8-23c2.9-8.6,4.9-17.3,4.9-17.3c20.5-11.5,13.6-95.9,13.6-109.4
			c0-13.4-20.5-35.5-29.3-35.5s-1.9-36.5-61.5-51.9s-112.3-7.7-141.6,6.7c-29.3,14.4-51.8,39.4-64.5,43.2
			c-13.6,3.8,4.9,13.4-5.9,22.1c-10.8,9.6,7.8,21.1,10.8,39.4c2.9,18.2,10.8,76.8,16.6,83.5c2.9,2.9,5.9,12.5,8.7,20.2
			C388.4,408.4,392.3,417.1,395.3,415.1z"/>
		<path class="st5" d="M526.4,759.3c1-1,2.9-1.9,2.9-2.9c7.8-17.3,16.8-29.3,17.8-43.7c-4.9-5.8-11.9-9.9-16.8-15.7
			c-2.9,0-4.9,1-7.8,1c-3.9,1-20.5,1-24.4,0c-2.9,0-5.9-1-8.7-1c-5.9,4.8-11.7,10.6-16.6,16.3c0,1.9,0,3.8,1,5.8
			c2.9,11.5,11.7,22.1,18.5,36.5c1,1,1.9,1.9,2.9,2.9c-2.9,15.4-14.9,80.4-24.6,142.8c0,0,0,0,0-1c9.8,29.8,19.6,61.2,28.3,91
			c1,0,17.4-0.1,29.5-0.5c6.8-25,14.6-56.6,23.4-86.3C542,842.9,529.3,774.7,526.4,759.3z"/>
		<path d="M628.7,731.9C628.7,731.9,627.6,731.9,628.7,731.9L628.7,731.9L628.7,731.9z"/>
		<path class="st6" d="M399.1,700.2c-20.5-28.8-22.5-48-22.5-57.6c0-1.9,0-2.9,0-3.8c0-0.9,0-1.9,0-1.9c0-1.9-1-2.9-1-4.8l1-1
			c0-3.8,1.9-7.7,2.9-9.6c1.9-2.9,3.9-3.8,4.9-4.8c1,0,1-1,1-1l0,0c-1.9,0-7.8,0-19.5,9.6c-3.9,2.9-10.8,7.7-18.5,14.4
			c-5.9,4.8-11.7,11.5-15.7,19.2c-14.6,26.9-15.7,43.2-26.3,50.9c-10.7,7.7,83,14.4,83,14.4l-59.6,44.2c0,0,48.1,74.3,75.1,108.5
			c9.8,14.4,36.1,55.6,49.9,79.6c1.9,3.8,8,17.1,15.9,34.4c9.8,1,20.3,0.1,30.1,0.1c-8.7-28.8-18.5-59.5-28.3-90.3
			C443.1,807.7,410.8,717.5,399.1,700.2z"/>
		<path class="st6" d="M554.7,900.8c-9.8,30.8-19.5,61.5-28.3,90.3c9.8,0,20.3,0.9,30.1-0.1c7.8-17.3,13.9-30.6,15.9-34.4
			c13.7-24,37.1-64.3,46.9-78.7c27.4-40.4,78.1-109.4,78.1-109.4l-60.4-42c0,0,91.3-7.6,80.6-15.3s-8.5-25.3-23.1-52.2
			c-4-7.7-9.8-14.4-15.7-19.2c-7.7-6.7-14.6-11.5-18.5-14.4c-11.7-9.6-17.6-9.6-19.5-9.6l0,0c0,0,0,1,1,1c1,1,2.9,1.9,4.9,4.8
			c1,1.9,2.9,5.8,2.9,9.6l1,1c0,1.9-1,2.9-1,4.8c0,0,0,1,0,1.9c0,0.9,0,1.9,0,3.8c0,9.6-1.9,28.8-22.5,57.6
			C615.4,717.5,583.1,807.7,554.7,900.8z"/>
		<path d="M375.7,633l-1,1c0,1.9,1,2.9,1,4.8c0-1,0-1,0-1.9C375.7,635.9,375.7,634,375.7,633z"/>
		<g>
			<path d="M454.8,957.3c-13.6-23-38-64.3-47.8-77.7c-27.4-40.3-77.2-110.1-77.2-110.1l58.7-45.4c0,0-83.8-6.9-83-12.5
				c10.8-7.7,11.7-24,26.3-50.9c4.9-7.7,10.8-14.4,15.7-19.2c-14.6,3.8-34.2,15.4-57.7,25c-37.1,15.4-94.7,25.9-106.5,33.6
				c6.9-1.7,13.3,0,19.2,4.3c-5.6-3.6-11.7-4.9-18.1-3.3c-1.9,0-3.9,1-5.9,1.9c-10.7,5.8-21.4,61.5-35.1,139.1
				c35.2,34.6,76.2,65.3,120.1,90.3c0-0.2,0-0.3,0-0.5c62.3,33.3,132.2,54.1,206.9,58.9C462.6,973.6,456.8,961.1,454.8,957.3z"/>
			<path d="M882.7,820.5c-10.8-68.1-20.5-115.1-31.2-119.9c-2.9-1-4.9-1.9-7.8-1.9c-1.2-0.2-2.3-0.3-3.5-0.3c1.4,0,2.9,0.1,4.4,0.3
				c-17.6-7.7-68.3-17.3-101.6-30.7c-29.3-11.5-52.8-26.9-67.4-26.9c5.9,4.8,10.8,11.5,15.7,19.2c14.6,26.9,15.7,43.2,26.3,50.9
				c9.8,7.7-73.2,13.4-83,14.4c0,0,0,0,0,1l58.6,44.2c0,0-50.7,69.1-78.1,109.4c-9.8,14.4-33.2,54.7-46.9,78.7
				c-3.9,5.8-10.8,18.2-17.6,32.6c79.1-6.7,153.3-32.6,217.7-72C768.4,918.5,813.1,897.5,882.7,820.5z"/>
		</g>
	</g>
</g>
<path class="st7" d="M504,677.5c1,5,34.1,33.1,39.8,38.8c0,1,0,1,0,2c7,8,11.9,15.9,11.9,23.9c0,1,0,3,0,4c0,0,0,0,0,1
	c3,16.9,66.7-55.7,83.6-100.5c0.5-1.4,0.9-2.6,1.3-3.8l0,0c0,0,5.7-14.9-12.3-31.2c-3-3-6.4-6.7-9.9-11.2c-3.3-4.1-6.6-8.9-9.8-14.5
	c-2-3-4-2-7,0c-1,0-1,1-2,2c0.1,0.2,0.2,0.4,0.2,0.6c-0.1-0.2-0.2-0.4-0.3-0.5c-11.9,10.9-36.8,41.8-94.5,86.6l-1,1c0,0,0-1-1-1
	c-60.7-46.8-85.6-78.6-96.5-87.5c-1-1-1-1-2-1c-3.1,6.2-7.1,13.1-12.3,19.9c5.4-7.2,9.6-12.5,12.4-19.9c-3-2-4-1-5,1
	c-9,13.9-17,20.9-24,27.9c1-1,1-1,1-1s0,1-1,1c-2,2-4,4-5,5c-1.9,1.9-3.9,4.9-4,8.6c-0.4,0.2,0.4,1.1,0,1.3c0,1,0,3,0,4c0,0,0,1,0,2
	c0,1,0,1,0,2c9.9,44.8,85.6,133.3,83.6,107.4c-1-9,6-19.9,13.9-28.9"/>
</svg>
