<?xml version="1.0" encoding="utf-8"?>
<!-- Generator: Adobe Illustrator 22.1.0, SVG Export Plug-In . SVG Version: 6.00 Build 0)  -->
<svg version="1.1" id="Calque_1" xmlns="http://www.w3.org/2000/svg" xmlns:xlink="http://www.w3.org/1999/xlink" x="0px" y="0px"
	 viewBox="0 0 104 103.5" style="enable-background:new 0 0 104 103.5;" xml:space="preserve">
<style type="text/css">
	.st0{fill:#F1F1F1;}
	.st1{fill:#8BAD21;}
	.st2{fill:#D59A80;}
	.st3{fill:#E0A384;}
	.st4{fill:#554C44;}
	.st5{fill:#FFFFFF;}
	.st6{fill:#EAEAEA;}
	.st7{fill:#9CC43B;}
	.st8{fill:#003C8F;}
</style>
<circle id="XMLID_8266_" class="st0" cx="52.2" cy="51.4" r="51"/>
<g id="XMLID_7896_">
	<path id="XMLID_7920_" class="st1" d="M87.4,73.7c-0.6,0.9-6.4,13.7-7.6,19.6c-0.1,0.4-0.2,0.7-0.2,1.1c5-3.2,9.4-7.3,13.1-12
		C90.7,78.4,89,75.3,87.4,73.7z"/>
	<path id="XMLID_7919_" class="st2" d="M52.3,66.3c4.9,0,8.1-2.7,9.8-4.9c0.2-1.3,0-2.5-0.5-3.6L61,56c-0.2,0.3-0.4,0.5-0.7,0.8
		c-3.2,2.9-4.5,4-8,4c-3.5,0-4.8-1.1-8-4c-0.3-0.2-0.5-0.5-0.7-0.7l-0.5,1.8c-0.6,1.1-0.7,2.3-0.5,3.6
		C44.2,63.7,47.5,66.3,52.3,66.3z"/>
	<polygon id="XMLID_7918_" class="st2" points="43.6,56 43.6,56 43.6,56 	"/>
	<path id="XMLID_7917_" class="st2" d="M61.1,56C61.1,56,61.1,56,61.1,56C61,56,61,56,61.1,56C61,56,61.1,56,61.1,56z"/>
	<path id="XMLID_7916_" class="st3" d="M43.6,56L43.6,56c0.2,0.3,0.4,0.6,0.7,0.8c3.2,2.9,4.5,4,8,4c3.5,0,4.8-1.1,8-4
		c0.3-0.2,0.5-0.5,0.7-0.8l0-0.1c0,0,0,0,0.1,0c0,0,0,0,0,0c2.6-3.4,1.3-9,3.1-8.9c2.9,0.1,4.1-2.4,3.4-5.6c-0.4-2-1.9-1.9-2.8-1.2
		c-0.2,0.7-0.5,1.2-0.6,1.1c-0.5-0.1-0.3-4.1,0.5-8.7c0.8-4.9-5.3-2.8-9.5-2.9C50.9,29.6,40.8,28.7,40,31c-0.8,2.3,1.1,9.5,0.5,9.7
		c-0.1,0-0.2,0-0.3-0.1c0,0.2,0,0.3,0,0.2c-0.4-0.9-2.7-1.9-3.3,0.7c-0.7,3.2,0.6,5.7,3.4,5.6C42.3,47,41,52.6,43.6,56
		C43.6,56,43.6,56,43.6,56C43.6,56,43.6,56,43.6,56z"/>
	<path id="XMLID_7915_" class="st4" d="M40.5,40.7c0.6-0.3-1.2-7.4-0.5-9.7c0.8-2.3,10.9-1.4,15.1-1.3c4.2,0.1,10.3-2,9.5,2.9
		c-0.7,4.6-0.9,8.6-0.5,8.7c0.2,0,0.4-0.5,0.6-1.1c0.4-1.3,0.9-3.1,0.9-3.1c2.1-1.2,1.4-10.1,1.4-11.5c0-1.4-2.1-3.7-3-3.7
		c-0.9,0-0.2-3.8-6.4-5.5c-6.2-1.6-11.7-0.8-14.7,0.7c-3,1.5-5.3,4.1-6.7,4.5C35,22,36.8,23,35.8,24c-1.1,1,0.8,2.2,1.1,4.1
		c0.3,1.9,1.1,8.1,1.7,8.8c0.5,0.6,1.2,3.3,1.7,3.8C40.3,40.7,40.4,40.7,40.5,40.7z"/>
	<path id="XMLID_7914_" class="st5" d="M52.4,82c0,0-0.1,0.1-0.1,0.1C52.3,82.1,52.3,82.1,52.4,82z"/>
	<path id="XMLID_7913_" class="st5" d="M59,68c0.6-0.6,1.2-1.4,1.7-2.3c-4,2.9-8.3,2.6-8.3,2.6S48,68.6,44,65.7
		c0.5,0.8,1,1.6,1.6,2.3c4.6,6.4,6.6,14.1,6.6,14.1l0,0C52.2,82.1,54.3,74.4,59,68z"/>
	<polygon id="XMLID_7912_" class="st5" points="52.2,82.1 52.2,82.1 52.2,82.1 	"/>
	<path id="XMLID_7911_" class="st6" d="M52.3,68.4c0,0,4.3,0.3,8.3-2.6c0.8-1.3,1.3-2.8,1.5-4.3c-1.7,2.2-4.9,4.9-9.8,4.9
		c-4.8,0-8.1-2.6-9.8-4.8c0.2,1.5,0.7,3,1.5,4.3C48,68.6,52.3,68.4,52.3,68.4z"/>
	<path id="XMLID_7910_" class="st1" d="M16.9,73.7L16.9,73.7c-1.7,1.6-3.4,4.7-5.3,8.7c3.6,4.7,8.1,8.8,13.1,12
		c-0.1-0.3-0.1-0.7-0.2-1.1C23.3,87.4,17.3,74.1,16.9,73.7z"/>
	<path id="XMLID_7907_" class="st7" d="M87.4,73.7C87.4,73.7,87.4,73.7,87.4,73.7c0.4-0.5-3.8-2.7-9.1-5.1c-3.3-1.5-6.1-3.5-8.9-5
		c0.5,1,1,2.1,1.4,3.3c0,0-8,1.4-8.9,1.7c-0.9,0.3-0.1,1.1-1.2,2.3c-5.1,5.4-7.3,10.2-8.4,11.1c0,0.1-0.1,0.1-0.1,0.1c0,0,0,0,0,0
		l0.5,0v20.3c9.9-0.1,19.1-3,26.8-8c0.1-0.3,0.1-0.7,0.2-1.1C81,87.5,86.8,74.6,87.4,73.7z M78.1,94H55.2v-1.2h22.9V94z"/>
	<polygon id="XMLID_7906_" class="st8" points="52.2,82.1 52.2,82.1 52.2,82.1 	"/>
	<polygon id="XMLID_7905_" class="st8" points="52.2,82.1 52.2,82.1 52.2,82.1 	"/>
	<path id="XMLID_7902_" class="st7" d="M51.6,82.1h0.6l0,0c-1-0.6-3.1-5.6-8.4-11.2c-1.1-1.2-0.4-2-1.2-2.3
		c-0.9-0.3-8.9-1.7-8.9-1.7c0.4-1.1,0.8-2,1.2-2.9c-2.8,1.4-5.7,3.1-9,4.6c-5.3,2.4-9.5,4.6-9.1,5v0c0.4,0.4,6.4,13.7,7.6,19.7
		c0.1,0.4,0.2,0.7,0.2,1.1c7.8,5,17,7.9,26.8,8V82.1z M26.3,94v-1.2h22.9V94H26.3z"/>
	<rect id="XMLID_7901_" x="26.3" y="92.9" class="st6" width="22.9" height="1.2"/>
	<rect id="XMLID_7900_" x="55.2" y="92.9" class="st6" width="22.9" height="1.2"/>
	<path id="XMLID_7899_" class="st6" d="M52.7,82.1h-0.5h0h-0.6v20.3c0.2,0,0.4,0,0.5,0s0.4,0,0.5,0V82.1z"/>
	<path id="XMLID_7898_" class="st1" d="M33.7,67c0,0,8,1.4,8.9,1.7c0.9,0.3,0.1,1.1,1.2,2.3c5.3,5.6,7.4,10.6,8.4,11.2l0,0l0,0v0
		c0,0-2-7.7-6.6-14.1c-0.6-0.6-1.2-1.4-1.6-2.3c-0.8-1.3-1.3-2.8-1.5-4.3c-0.2-1.3,0-2.6,0.5-3.6l0.5-1.8l0-0.1c0,0,0,0-0.1,0
		c0,0,0,0,0,0c-2.2,0.5-5.4,1.5-8.6,8.1C34.6,65,34.1,65.9,33.7,67z"/>
	<path id="XMLID_7897_" class="st1" d="M61,56L61,56l0.6,1.9c0.6,1,0.7,2.3,0.5,3.6c-0.2,1.5-0.7,3-1.5,4.3c-0.5,0.9-1,1.6-1.7,2.3
		c-4.6,6.4-6.7,14.1-6.7,14.1l0,0c0,0,0,0,0,0c0,0,0.1-0.1,0.1-0.1c1-0.9,3.3-5.7,8.4-11.1c1.1-1.2,0.4-2,1.2-2.3
		c0.9-0.3,8.9-1.7,8.9-1.7c-0.5-1.3-1-2.4-1.4-3.3C66.3,57.4,63.2,56.5,61,56C61.1,56,61,56,61,56C61,56,61,56,61,56z"/>
</g>
</svg>
