<?xml version="1.0" encoding="utf-8"?>
<!-- Generator: Adobe Illustrator 22.1.0, SVG Export Plug-In . SVG Version: 6.00 Build 0)  -->
<svg version="1.1" id="Calque_1" xmlns="http://www.w3.org/2000/svg" xmlns:xlink="http://www.w3.org/1999/xlink" x="0px" y="0px"
	 viewBox="0 0 104 103.5" style="enable-background:new 0 0 104 103.5;" xml:space="preserve">
<style type="text/css">
	.st0{fill:#F1F1F1;}
	.st1{fill:#3A1812;}
	.st2{fill:#E05022;}
	.st3{fill:#FFDDCA;}
	.st4{fill:#FFE6D3;}
	.st5{fill:#F46D44;}
</style>
<circle id="XMLID_8228_" class="st0" cx="52.4" cy="51.3" r="50.9"/>
<g id="XMLID_7688_">
	<path id="XMLID_7709_" class="st1" d="M65.8,46.2c-0.8-0.5-0.7,7.1-3.9,10.1c-0.2,0.2-0.5,0.4-0.7,0.6c-0.2,0.2-0.4,0.4-0.7,0.5
		c0.2,1.9,0.7,4.3,2.6,6.4c3.3-0.9,5.9-1.9,5.4-2.7c-1.2-1.8-0.8-9.2-0.8-15.7C67.3,46.3,66.6,46.7,65.8,46.2z"/>
	<path id="XMLID_7708_" class="st1" d="M44.8,56.3c-3.1-3-3.1-10.6-3.9-10.1c-1,0.7-1.8-0.2-2.3-1.5c0,6.7,0.4,14.7-0.8,16.5
		c-0.6,0.8,2.3,1.9,5.7,2.8c1.9-2,2.5-4.5,2.7-6.4C45.7,57.1,45.2,56.7,44.8,56.3z"/>
	<path id="XMLID_7707_" class="st2" d="M31.2,97.6c-0.4-4.5-0.4-9.8-0.8-14.7c-0.5-7.1-1.9-13.2-1.9-13.7c0,0,0,0,0-0.1
		c-0.3-0.1-0.7-0.2-1.2,0c-2.2,0.7-5.4,7.6-7.2,15.4c-0.4,1.6-0.8,3.3-1.2,5C22.7,92.8,26.8,95.5,31.2,97.6z"/>
	<path id="XMLID_7706_" class="st2" d="M78.7,69.1c0,0.5-1.4,6.5-1.9,13.7c-0.3,4.5-0.7,9.3-0.7,13.6c4.2-2.2,8-5,11.4-8.2
		c-0.3-1.3-0.6-2.5-0.8-3.7c-1.8-7.8-5-14.8-7.2-15.4c-0.4-0.2-0.7-0.2-0.9-0.2C78.6,69,78.7,69,78.7,69.1z"/>
	<path id="XMLID_7705_" class="st3" d="M42.2,65.1c0.3-0.1,0.4-0.1,0.3-0.1c-0.2,0-0.4,0.1-0.5,0.2c-0.2,0.2-0.5,0.6-0.6,1.2
		c-0.1,0.4-0.7,1.8,1.9,5.1c2,2.5,7.6,11.2,9.5,16.3h0.7H54c1.9-5.1,7.5-13.8,9.5-16.4c2.7-3.4,2-4.7,1.9-5.1
		c-0.2-1.2-0.9-1.4-0.9-1.4s0,0,0.1,0c-0.5-0.4-0.9-0.8-1.3-1.2c-1.9-2-2.5-4.5-2.6-6.4c-0.5,0.4-1.1,0.8-1.7,1.2
		c-0.7,0.4-1.5,0.8-2.3,1c-0.7,0.2-1.5,0.4-2.2,0.5c-0.9,0.1-1.9,0.1-2.8-0.1c-0.8-0.1-1.5-0.3-2.2-0.6c-0.8-0.3-1.6-0.7-2.3-1.2
		c-0.3-0.2-0.7-0.5-1-0.7c-0.2,1.9-0.7,4.4-2.7,6.4C43.1,64.3,42.7,64.7,42.2,65.1C42.3,65,42.3,65,42.2,65.1L42.2,65.1z"/>
	<path id="XMLID_7704_" class="st4" d="M41,46.2c0.8-0.5,0.7,7.1,3.9,10.1c0.4,0.4,0.9,0.8,1.4,1.2c0.3,0.3,0.7,0.5,1,0.7
		c0.7,0.5,1.5,0.9,2.3,1.2c0.7,0.3,1.5,0.5,2.2,0.6c0.9,0.1,1.9,0.2,2.8,0.1c0.7-0.1,1.5-0.2,2.2-0.5c0.8-0.3,1.5-0.6,2.3-1
		c0.6-0.3,1.1-0.8,1.7-1.2c0.2-0.2,0.4-0.3,0.7-0.5c0.2-0.2,0.5-0.4,0.7-0.6c3.1-3,3.1-10.6,3.9-10.1s1.5,0.1,2-0.8
		c0.6-1,1-2.5,1.1-3.6c0.2-1.5-0.3-2.4-1-2.4c-0.3,1.5-0.8,1.1-1.3,1.3c-0.6,0.4-1.3-4.7-4.2-7.1c-2.9-2.4-3.1-4-3.1-4
		c-2.9,0.3-5.7,1.4-10.4,5.1c-3.7,3-7.1,5.9-8.6,6.3c-0.6,0.3-0.6-1.3-2-1c-0.1,0-0.1-0.1-0.2-0.4c-0.4,0.3-0.6,1.1-0.5,2.2
		c0.1,0.8,0.3,1.9,0.7,2.8C39.1,45.9,39.9,46.9,41,46.2z"/>
	<path id="XMLID_7701_" class="st5" d="M71,72.4c0.2,0.1,0.7,0.3,0.2,0.4c-0.3,6.7-0.5,14.9-0.5,14.9h-4.2c0,0,0.1-3.7,0.2-8.1
		c-2,1.8-4.8,4.1-7,5.5c-0.7,0.4-1.8,1.4-3,2.6L71,87.8c0.2,0.3,0.2,5,0.1,10.9c1.7-0.7,3.4-1.4,5-2.3c0.3-4.2,0.3-9.1,0.7-13.6
		c0.5-7.1,1.9-13.2,1.9-13.7c0,0,0-0.1-0.1-0.1c-0.6-0.5-3.8-1.4-7-2.3c-0.1,1.4-0.3,3.2-0.4,5.3C71.4,72.1,70.8,72.3,71,72.4z"/>
	<path id="XMLID_7700_" class="st5" d="M30.3,82.8c0.3,4.9,0.3,10.3,0.8,14.7c1.6,0.7,3.3,1.4,4.9,2c-0.1-6.4-0.2-11.3,0.1-11.7
		l14,0.1c-1.4-1.4-2.6-2.5-3.3-2.9c-2-1.3-4.5-3.3-6.4-5c0.1,4.3,0.2,7.8,0.2,7.8h-4.2c0,0-0.2-8.1-0.5-14.9
		c0.1-0.1,0.1-0.2,0.4-0.4c0.3-0.2-0.6-0.6-0.4-1.1c-0.1-1.8-0.2-3.5-0.3-4.8c-3.4,0.9-6.8,1.9-7.1,2.4c0,0,0,0,0,0.1
		C28.4,69.6,29.8,75.7,30.3,82.8z"/>
	<path id="XMLID_7696_" class="st1" d="M38.6,40c1.4-0.3,1.4,1.3,1.9,1.2c1.5-0.4,4.8-3.4,8.6-6.3c4.7-3.8,7.5-4.8,10.4-5.1
		c0,0,0.2,1.6,3.1,4c2.9,2.4,3.6,7.5,4.2,7.1c0.4-0.3,1,0.2,1.3-1.3c0.1-0.7,0.2-1.7,0.2-3.3c0-5.3-2.2-10.8-5.7-11.8
		c-1.7-0.4-1.9-2.1-5.6-3.2c-6-1.8-12.7,0.7-16.2,6.4c-2.6,4.3-2.5,10.4-2.2,11.9C38.5,39.8,38.5,40,38.6,40z"/>
	<path id="XMLID_7695_" class="st2" d="M65.4,66.5c0.1,0.4,0.7,1.8-1.9,5.1c-2,2.5-7.6,11.2-9.5,16.4h2.7c1.2-1.3,2.4-2.2,3-2.6
		c2.2-1.4,4.9-3.7,7-5.5c0-1.4,0.1-3,0.2-4.5l-0.3-1c0,0-1-0.8,0.4-0.9c0.1-2.9,0.4-6.3,0.6-7.7c-0.5-0.3-1,0.1-1.2-0.1
		s-0.4-0.3-0.6-0.4c-0.6-0.3-1-0.3-1.1-0.3h-0.1C64.6,65,65.2,65.3,65.4,66.5z"/>
	<path id="XMLID_7692_" class="st2" d="M39.4,65.7c0.2,1.4,0.5,4.7,0.7,7.7c1.3,0.1,0.5,0.7,0.5,0.7L40.1,75
		c0.1,1.6,0.1,3.5,0.2,5.1c1.9,1.6,4.4,3.6,6.4,5c0.7,0.4,2,1.5,3.3,2.9h2.7c-1.9-5.1-7.5-14-9.5-16.5c-2.7-3.4-2-4.7-1.9-5.1
		c0.1-0.7,0.4-1,0.6-1.2c0.1-0.1,0.1-0.1,0.2-0.1c0.1,0,0.1-0.1,0.1-0.1s0,0-0.1,0s-0.6-0.1-1.4,0.4c-0.1,0.1-0.3,0.2-0.4,0.3
		C40.2,65.8,39.8,65.5,39.4,65.7z"/>
</g>
<path class="st5" d="M35.4,66.7l4-1c0,0,3.2,11.2,1.1,22.1c-4.2,0-4.2,0-4.2,0"/>
<path class="st5" d="M71.9,66.8l-4.3-1.1c0,0-3.2,11.2-1.1,22.1c4.2,0,4.2,0,4.2,0"/>
<path class="st5" d="M36,99.5c0,0,17.4,6.1,35.1-0.8c2.8-8.2-0.4-13-0.4-13l-14.4,2.1l-6.1,0.1l-15.9-1.6C34.2,86.4,32,98.9,36,99.5
	z"/>
</svg>
