<?xml version="1.0" encoding="utf-8"?>
<!-- Generator: Adobe Illustrator 22.1.0, SVG Export Plug-In . SVG Version: 6.00 Build 0)  -->
<svg version="1.1" id="Calque_1" xmlns="http://www.w3.org/2000/svg" xmlns:xlink="http://www.w3.org/1999/xlink" x="0px" y="0px"
	 viewBox="0 0 104 103.5" style="enable-background:new 0 0 104 103.5;" xml:space="preserve">
<style type="text/css">
	.st0{fill:#F1F1F1;}
	.st1{fill:#0F0F0F;}
	.st2{fill:none;}
	.st3{fill:#D59A80;}
	.st4{fill:#332D2D;}
	.st5{fill:#E0A384;}
	.st6{fill:#5B3836;}
	.st7{fill:#3B1000;}
	.st8{opacity:0.3;enable-background:new    ;}
</style>
<circle id="XMLID_8235_" class="st0" cx="51.9" cy="51.7" r="51"/>
<path class="st1" d="M33,52.1c0,0,7.4-26.2,17.2-24.8s16.2,18.9,16.2,18.9l-1.5,14l-6.5,5.3L50.9,71l-9.3-5.5
	C41.5,65.5,31.3,60.8,33,52.1z"/>
<g id="XMLID_7873_">
	<path id="XMLID_7895_" class="st2" d="M41.9,60.2c0-0.1,0.1-0.2,0.1-0.3L41.9,60.2z"/>
	<path id="XMLID_7894_" class="st3" d="M42,59.9c0,0.1-0.1,0.2-0.1,0.3l-0.3,1c-1.6,3,0.9,6.7,3.2,9.2c0,0,3.4,3,6.1,7.6
		c2.6-4.6,6.1-7.6,6.1-7.6c2.4-2.5,4.8-6.2,3.2-9.2l-0.4-1.9l0,0c-0.1-0.6-0.2-1.1-0.3-1.7c0,0,0,0-0.1,0.1
		c-0.8,0.7-1.6,1.3-2.5,1.8c-0.8,0.4-1.6,0.8-2.4,1.1c-0.8,0.2-1.5,0.4-2.3,0.5c-1,0.1-2,0.1-3-0.1c-0.8-0.1-1.7-0.4-2.4-0.7
		c-0.8-0.3-1.3-0.6-2-1.1s-1.7-1.4-2.4-2c-0.1,0.6-0.2,1.4-0.3,2.1l0,0L42,59.9z"/>
	<path class="st4" d="M85.5,71.7c-0.7-0.7-9.4-2.9-9.4-2.9l0,0c0,0-4.7-2.3-5.1-2.1c0,0-12-4.4-12.5-0.6c-0.5,0-4.3,3.7-7.4,3.9
		c-3.6,0.2-7.2-3.6-8.6-3.5c-0.5-3.5-15,2.3-15,2.4c-3.5,1.1-7.5,2-8.7,2.6c-0.1,0-0.2,0-0.2,0c-2.1,0.6-4.5,6.1-6.2,12.2
		c3.5,4.4,7.7,8.1,12.5,11.1c1.7,1.1,3.5,2.1,5.3,2.9c2.3,1.1,4.6,2,7.1,2.7c3.1,0.9,6.2,1.6,9.5,1.9c0,0,2.3,0.3,5.3,0.3
		c2.5,0,5.3-0.3,5.3-0.3c3.1-0.3,6.1-0.9,9-1.8c2.4-0.7,4.8-1.6,7.1-2.7c2-0.9,3.9-2,5.7-3.1c4.7-3,8.9-6.7,12.4-10.9
		C89.8,78.1,87.6,72.6,85.5,71.7z"/>
	<path id="XMLID_7884_" class="st5" d="M46.9,60.4c0.8,0.3,1.5,0.5,2.3,0.6c1,0.2,2,0.2,3,0.1c0.8-0.1,1.6-0.2,2.3-0.5
		c0.8-0.3,1.6-0.6,2.4-1.1c0.9-0.5,1.7-1.1,2.5-1.8c0,0,0,0,0.1-0.1c0.2-0.2,0.5-0.4,0.7-0.6c3.3-3.2,3.3-11.3,4.1-10.7
		c1.8,1.2,3-2.4,3.2-4.6c0.2-2.2-0.8-3.1-1.7-2.2c-0.1,0.1-0.1,0.1-0.1,0.1c-0.3,0.6-1.3,0.4-1.7,1.1c-0.3,0.6-0.3-1.2-0.6-2.5h-0.1
		c-1.5-0.4-3.1-3.4-9.2-4.1c-0.9,0-1.9-0.1-2.8-0.2c-0.1,0-0.1,0-0.2,0c-8.6,0-10.5,3.8-12.2,4.3c-0.2,0.1-0.3,0-0.5,0
		c-0.2,1.5,0.1,2.9-0.4,2.4c-0.7-0.7-1.5-0.7-1.7-1.2l0,0c-0.9-0.8-1.8,0.2-1.6,2.2c0.2,2.2,1.4,5.8,3.2,4.6
		c0.8-0.6,0.8,7.5,4.1,10.7c0.1,0.1,0.3,0.3,0.4,0.4c0.7,0.6,1.3,1.2,2.1,1.7C45.3,59.6,46.1,60,46.9,60.4z"/>
	<path id="XMLID_7882_" class="st6" d="M53.5,88.2c0,0.2,0,0.3,0,0.3V88.2z"/>
</g>
<path class="st7" d="M38.3,32.3c0,0-0.8,5.3,11.3,8.4c0,0-2.4-2.4-2.5-3.5c0,0,1.7,3,9.6,4.1c0,0-3.6-2.2-3.4-3.5
	c0,0,5.4,4.8,10.6,3.4l-5.4-6.9c-3.8-4.8-10.3-6.4-15.9-4L38.3,32.3z"/>
<path class="st8" d="M36.9,43.7c0,0,13.9,11.5,27.9,0c-0.5-1-5.3-13.5-6.9-14.4c-6.9-3.8-18.1,5.1-18.1,5.1L36.9,43.7z"/>
<g>
	<path class="st4" d="M70.7,46.9c-3.2-14.9-11-26-20.5-27.4C40.7,20.9,32.8,32,29.7,46.9c-3.2,14.9,12.2,19.9,12.2,19.9l8.3,4.5l0,0
		c0,0-2.3-5-10.8-9.8s-1.5-21.6,5.4-28.1c0,0,1.8-2.4,5.4-2.4c3.6,0,5.4,2.4,5.4,2.4c7,6.6,13.9,23.3,5.4,28.1s-10.8,9.8-10.8,9.8
		l8.3-4.5C58.5,66.8,73.9,61.8,70.7,46.9z"/>
	<path class="st4" d="M49.2,65.5L49.2,65.5L49.2,65.5z"/>
</g>
<path class="st1" d="M26,95.7l3.7-4.4l0.8,6.7C30.5,98,28.5,97.1,26,95.7z"/>
<path class="st1" d="M77.8,95.7l-3.7-4.4L73.3,98C73.3,98,75.3,97.1,77.8,95.7z"/>
</svg>
