<?xml version="1.0" encoding="utf-8"?>
<!-- Generator: Adobe Illustrator 22.1.0, SVG Export Plug-In . SVG Version: 6.00 Build 0)  -->
<svg version="1.1" id="Calque_1" xmlns="http://www.w3.org/2000/svg" xmlns:xlink="http://www.w3.org/1999/xlink" x="0px" y="0px"
	 viewBox="0 0 104 103.5" style="enable-background:new 0 0 104 103.5;" xml:space="preserve">
<style type="text/css">
	.st0{fill:#F1F1F1;}
	.st1{fill:#1E0603;}
	.st2{fill:#F7F7F7;}
	.st3{fill:#D59A80;}
	.st4{fill:#E0A384;}
	.st5{fill:#FFFFFF;}
	.st6{fill:#582D11;}
</style>
<circle id="XMLID_86_" class="st0" cx="51.9" cy="51.7" r="51.5"/>
<g id="XMLID_22_">
	<path id="XMLID_85_" class="st1" d="M65.4,46.5c-0.8-0.5-0.7,7.2-3.9,10.2c-0.2,0.2-0.5,0.4-0.7,0.6c-0.2,0.2-0.4,0.4-0.7,0.5
		c0.2,1.9,0.7,11,2.6,13c3.3-0.9,6-1.9,5.4-2.7c-1.2-1.8-0.8-15.9-0.8-22.5C66.9,46.6,66.2,47.1,65.4,46.5z"/>
	<path id="XMLID_83_" class="st2" d="M30.3,98.5c-0.4-4.5-0.4-9.9-0.8-14.9c-0.5-7.2-2-13.3-2-13.8c0,0,0,0,0-0.1
		c-0.3-0.1-0.7-0.2-1.2,0c-2.2,0.7-5.5,7.7-7.3,15.6c-0.4,1.6-0.8,3.3-1.2,5.1C21.6,93.7,25.8,96.4,30.3,98.5z"/>
	<path id="XMLID_82_" class="st2" d="M78.4,69.8c0,0.5-1.4,6.6-2,13.8c-0.3,4.6-0.3,9.5-0.7,13.7c4.2-2.2,8.1-5,11.5-8.3
		c-0.3-1.3-0.6-2.5-0.9-3.7c-1.8-7.9-5.1-14.9-7.3-15.6c-0.4-0.1-0.6-0.1-0.9-0.1C78.4,69.7,78.4,69.7,78.4,69.8z"/>
	<path id="XMLID_81_" class="st3" d="M41.5,65.4c0.3-0.1,0.4-0.1,0.3-0.1c-0.2,0-0.4,0.1-0.5,0.2c-0.2,0.2-0.5,0.6-0.6,1.2
		c-0.1,0.4-0.7,1.8,2,5.2c2,2.6,7.7,11.4,9.6,16.5h0.8h0.5c1.9-5.2,7.6-14,9.6-16.5c2.7-3.4,2.1-4.8,2-5.2c-0.2-1.2-0.9-1.4-0.9-1.4
		s0,0,0.1,0c-0.5-0.4-1-0.8-1.3-1.2c-1.9-2.1-2.5-4.5-2.6-6.4c-0.5,0.4-1-2.3-1.7-1.9c-0.7,0.4-1.5,0.8-2.3,1
		c-0.7,0.2-1.5,0.4-2.2,0.5c-0.9,0.1-1.9,0.1-2.8-0.1c-0.8-0.1-1.5-0.3-2.2-0.6c-0.8-0.3-1.6-0.7-2.3-1.2c-0.3-0.2-0.8,2.6-1,2.3
		c-0.2,2-0.7,4.4-2.7,6.5C42.5,64.6,42.1,64.9,41.5,65.4C41.6,65.3,41.6,65.3,41.5,65.4C41.6,65.3,41.6,65.3,41.5,65.4z"/>
	<path id="XMLID_80_" class="st4" d="M40.3,43.6c0.8-0.5,0.7,7.2,3.9,10.2c0.4,0.4,0.9,0.8,1.4,1.2c0.3,0.3,0.7,0.5,1,0.8
		c0.7,0.5,1.5,0.9,2.3,1.2c0.7,0.3,1.5,0.5,2.2,0.6c0.9,0.1,1.9,0.2,2.8,0.1c0.8-0.1,1.5-0.2,2.2-0.5c0.8-0.3,1.6-0.6,2.3-1
		c0.6-0.3,1.2-0.8,1.7-1.2c0.2-0.2,0.5-0.4,0.7-0.5c0.2-0.2,0.5-0.4,0.7-0.6c3.2-3.1,3.1-10.8,3.9-10.2c0.8,0.5,1.5,0.1,2-0.8
		c0.6-1,1-2.5,1.1-3.6c0.2-1.6-0.3-2.4-1-2.4c-0.3,1.5-0.8,1.1-1.3,1.3c-0.6,0.4-1.3-4.8-4.2-7.2c-2.9-2.4-3.1-4-3.1-4
		c-2.9,0.3-4.5-10.2-9.3-6.4c-3.8,3-7.1,6-8.7,6.4c-0.4,0.1-1.6,10.1-3,10.4c-0.1,0-0.1-0.1-0.2-0.4c-0.4,0.3-0.6,1.1-0.5,2.2
		c0.1,0.9,0.3,1.9,0.7,2.8C38.5,43.4,39.3,44.3,40.3,43.6z"/>
	<path id="XMLID_79_" class="st5" d="M70.7,73.2c0.2,0.1,0.7,0.3,0.2,0.4c-0.3,6.8-0.5,15.1-0.5,15.1h-4.2c0,0,0.1-3.7,0.2-8.1
		c-2.1,1.8-4.8,4.1-7,5.5c-0.7,0.4-1.8,1.4-3.1,2.7l14.4-0.1c0.2,0.3,0.2,5,0.1,11c1.7-0.7,3.4-1.5,5.1-2.3
		c0.3-4.3,0.3-9.2,0.7-13.7c0.5-7.2,2-13.3,2-13.8c0,0,0-0.1-0.1-0.1c-0.6-0.5-3.8-1.5-7-2.3c-0.1,1.4-0.3,3.3-0.4,5.3
		C71.1,72.9,70.5,73,70.7,73.2z"/>
	<path id="XMLID_78_" class="st5" d="M29.5,83.6c0.3,5,0.4,10.4,0.8,14.9c1.6,0.7,3.3,1.4,5,2c-0.1-6.4-0.2-11.4,0.1-11.8l14.2,0.1
		c-1.4-1.4-2.7-2.5-3.4-3c-2.1-1.3-4.6-3.4-6.5-5c0.1,4.3,0.2,7.9,0.2,7.9h-4.2c0,0-0.2-8.2-0.5-15c0.1-0.1,0.1-0.2,0.4-0.4
		c0.3-0.2-0.6-0.7-0.4-1.1c-0.1-1.9-0.2-3.6-0.3-4.9c-3.5,0.9-6.9,1.9-7.1,2.4c0,0,0,0,0,0.1C27.6,70.3,29,76.4,29.5,83.6z"/>
	<path id="XMLID_76_" class="st0" d="M65,67.1c0.1,0.4,0.7,1.8-2,5.2c-2,2.6-7.7,11.4-9.6,16.5h2.8c1.3-1.3,2.4-2.2,3.1-2.7
		c2.2-1.4,5-3.7,7-5.5c0-1.5,0.1-3,0.2-4.5l-0.3-1c0,0-1-0.8,0.4-0.9c0.1-2.9,0.4-6.3,0.6-7.8c-0.5-0.3-1,0.1-1.2-0.1
		s-0.4-0.3-0.6-0.4c-0.6-0.3-1-0.3-1.2-0.3h-0.1C64.1,65.6,64.8,65.9,65,67.1z"/>
	<path id="XMLID_70_" class="st0" d="M38.8,66.3c0.2,1.4,0.5,4.7,0.7,7.8c1.3,0.1,0.6,0.8,0.6,0.8l-0.5,0.9c0.1,1.7,0.1,3.3,0.2,4.9
		c1.9,1.7,4.4,3.7,6.5,5c0.7,0.4,2,1.5,3.4,3h2.7c-1.9-5.2-7.6-14-9.6-16.5c-2.7-3.4-2.1-4.8-2-5.2c0.1-0.7,0.4-1,0.6-1.2
		c0.1-0.1,0.1-0.1,0.2-0.2c0.1,0,0.1-0.1,0.1-0.1s0,0-0.1,0s-0.6-0.1-1.4,0.4c-0.1,0.1-0.3,0.2-0.4,0.3
		C39.6,66.4,39.1,66.1,38.8,66.3z"/>
</g>
<path class="st5" d="M34.7,67.3l4-1c0,0,3.2,11.3,1.1,22.4c-4.2,0-4.2,0-4.2,0"/>
<path class="st5" d="M71.5,67.4l-4.3-1.1c0,0-3.2,11.3-1.1,22.4c4.2,0,4.2,0,4.2,0"/>
<path class="st5" d="M35.3,100.5c0,0,17.6,6.5,35.5-0.8c2.8-8.3-0.4-13.1-0.4-13.1l-14.5,2.2l-6.2,0.1l-16.1-1.6
	C33.5,87.2,31.2,99.9,35.3,100.5z"/>
<g>
	<path class="st6" d="M46.6,28.2c0,0-1.1,2.8,5.7,3.1c6.8,0.3,7.3,1.2,10.3,4.2c3,2.9,2.9,5.4,1.7,8c-1.2,2.6-2,4.5-1.6,7
		c0,0-1.5,2.8-5.7,6.2c0,0-0.7,4.8,1,6.9s7.2,5.5,5.2,8.2s-2.6,6.3,1.7,8.9c0,0-2.2-2.3,0.1-3.5c2.3-1.2,4-1.9,4.2-4.2
		c0.1-2.4,2.7-3.3,2-5.3s0.2-4.3,1.4-5.2c1.2-0.9,2.2-4.1,0.9-6.6c-1.3-2.6,1.5-2.8,0.6-5s-2.7-2.9-1.6-6.4c1.2-3.8-1.2-6.1-4.1-7.8
		c-2.2-1.2-1.3-2.2-1.2-4.2c0-2.6-0.3-7.9-4.8-10.7c-4.4-2.8-7.9-3.2-13.7-2.3c0,0-3.8-0.4-6.3,1.7c-3.2,2.8-2.9,5.2-3.6,10.1
		c-0.5,4.1,0.2,4.5-2.2,6.8C33.7,40.8,32.2,41,34,46s1.3,5.5,0.1,7.1s-2,1.4-0.7,4.9s3.2,3.4,1.2,6.5S40,74,37,77
		c0,0,3.6-1.9,3.9-5.5c0.1-1.5-0.7-2.9-0.2-4.1c0.7-1.8,4.8-3,5.7-3.5c1.4-0.8,2.6-5,1.8-7.2c0,0-6-5.2-6.3-7.9
		c-0.4-3.6-1.4-12.9-1.4-13.2C40.6,35.3,45.8,30.7,46.6,28.2z"/>
</g>
</svg>
