<?xml version="1.0" encoding="utf-8"?>
<!-- Generator: Adobe Illustrator 22.1.0, SVG Export Plug-In . SVG Version: 6.00 Build 0)  -->
<svg version="1.1" id="Calque_1" xmlns="http://www.w3.org/2000/svg" xmlns:xlink="http://www.w3.org/1999/xlink" x="0px" y="0px"
	 viewBox="0 0 104 103.5" style="enable-background:new 0 0 104 103.5;" xml:space="preserve">
<style type="text/css">
	.st0{fill:#F1F1F1;}
	.st1{fill:none;}
	.st2{fill:#D59A80;}
	.st3{fill:#54312B;}
	.st4{fill:#714641;}
	.st5{fill:#E0A384;}
	.st6{fill:#5B3836;}
	.st7{fill:#69413E;}
	.st8{fill:#724F4E;}
	.st9{fill:#582D11;}
	.st10{fill:#33190A;}
	.st11{fill:#B0AB1E;}
	.st12{fill:#FFB217;}
	.st13{fill:#E64810;}
</style>
<circle id="XMLID_41_" class="st0" cx="52" cy="51.6" r="51.5"/>
<g id="XMLID_6_">
	<path id="XMLID_40_" class="st1" d="M42.8,60.1c0-0.1,0.1-0.2,0.1-0.3L42.8,60.1z"/>
	<path id="XMLID_39_" class="st2" d="M42.9,60.2c0,0.1-0.1,0.2-0.1,0.3l-1.4,0.6c-1.6,3,2,7.2,4.4,9.7c0,0,3.5,3,6.1,7.6
		c2.7-4.7,6.1-7.6,6.1-7.6c2.4-2.6,4.9-6.3,3.3-9.3l-0.4-1.9l0,0c-0.1-0.6-0.2-2.4-0.3-3c0,0,0,1.3-0.1,1.4c-0.8,0.7-1.6,0-2.5,0.5
		c-0.8,0.4-1.6,0.8-2.4,1.1c-0.8,0.2-1.6,0.4-2.4,0.5c-1,0.1-2,0.1-3-0.1c-0.8-0.1-1.6-0.3-2.4-0.6c-0.9-0.3-1.7-0.8-2.4-1.3
		c-0.8-0.5-1.4,0.2-2.1-0.4c-0.1,0.6-0.2,1.2-0.3,1.9l0,0L42.9,60.2z"/>
	<path id="XMLID_38_" class="st3" d="M18.2,71.9c-0.1-0.1,0-0.3,0.3-0.4c-0.1,0-0.2,0-0.2,0c-2.2,0.6-4.5,6.2-6.2,12.3
		c3.6,4.4,7.8,8.2,12.6,11.2c-0.3-3.3-0.6-6.3-0.7-8.7C23.5,78.2,18.8,72.7,18.2,71.9z"/>
	<path id="XMLID_37_" class="st3" d="M85.9,71.6c0.1,0.1,0.1,0.2,0.1,0.3c-0.6,0.8-5.4,6.3-5.8,14.4c-0.1,2.4-0.2,5.5-0.6,8.8
		c4.7-3,9-6.7,12.5-11C90.4,78.1,88,72.6,85.9,71.6z"/>
	<path id="XMLID_35_" class="st4" d="M18.5,71.5c-0.3,0.1-0.4,0.3-0.3,0.4c0.6,0.8,5.3,6.3,5.7,14.4c0.1,2.4,0.4,5.5,0.7,8.7
		c1.7,1.1,3.9,2.2,5.7,3.1c-1-9.9-2.8-25.6-3.1-29.3C23.8,70,19.6,70.8,18.5,71.5z"/>
	<path id="XMLID_34_" class="st4" d="M69.9,73.2c1.2-3.7,1.1-6.5,1.4-6.6l0,0c-1.8-0.8-3.7-1.5-5.2-1.8
		C67.3,66.8,68.1,70.7,69.9,73.2z"/>
	<path id="XMLID_33_" class="st4" d="M33.8,73.2c1.4-3.7,2.7-6.5,4-8.6c-1.5,0.4-3.4,1.2-5.3,2.1C32.8,67.2,33.3,69.7,33.8,73.2z"/>
	<path class="st4" d="M85.9,71.6c-0.7-0.7-5.6-1.7-9.5-3c-0.6-0.5-4.7-2.2-5.1-2c-0.3,0.2-0.8,2.8-1.4,6.6v0.1
		c-1.2,7.8-2.6,20.6-3.3,27.7c2.5-0.7,4.9-1.6,7.2-2.7c2.2-1.1,3.2-1.7,5.8-3.2c0.4-3.3,0.5-6.4,0.6-8.8c0.5-8.1,5.3-13.6,5.8-14.4
		C86.1,71.8,86,71.7,85.9,71.6z"/>
	<path id="XMLID_29_" class="st5" d="M48.2,60.2c0.8,0.3,1.6,0.5,2.4,0.6c1,0.2,2,0.2,3,0.1c0.8-0.1,1.6-0.2,2.4-0.5
		c0.8-0.3,1.7-0.6,2.4-1.1c0.9-0.5,1.7-1.2,2.5-1.8c0,0,0,0,0.1-0.1c0.2-0.2,0.5-0.4,0.7-0.6c3.4-3.2,3.3-11.4,4.1-10.8
		c1.8,1.2,3-2.5,3.3-4.6c0.2-2.2-0.8-3.1-1.7-2.2c-0.1,0.1-0.1,0.1-0.1,0.1c-0.3,0.6-1.3,0.4-1.7,1.1c-0.3,0.6-0.3-1.2-0.6-2.5
		l-0.1-2.8c-1.5-0.4-3.1-3.4-9.3-4.2c-0.9,0-1.9-0.1-2.9-0.2c-0.1,0-0.1,0-0.2,0c-8.7,0-10.6,3.9-12.3,4.4c-0.2,0.1-0.3,2.8-0.5,2.8
		c-0.2,1.5,0.1,2.9-0.4,2.5c-0.7-0.7-1.5-0.7-1.7-1.2l0,0c-0.9-0.8-1.8,0.2-1.6,2.3c0.2,2.2,1.4,5.9,3.3,4.6
		c0.8-0.6,0.8,7.6,4.1,10.8c0.1,0.1,0.3,0.3,0.4,0.4c0.7,0.6,1.4,1.2,2.1,1.7C46.6,59.5,47.4,59.9,48.2,60.2z"/>
	<path id="XMLID_28_" class="st6" d="M51.9,78c-1.9-2.9-2.2-3.2-2.2-3.2C45.9,71,42.1,72,42,72c-0.2,0-0.5,0-1,0
		c1.1,0.9,2.8,2.6,4.5,5.5c2.9,4.8,3.6,9.6,3.7,10.9L49,86.1C49.4,83.1,50.5,80.4,51.9,78z"/>
	<path id="XMLID_27_" class="st6" d="M54.5,88.4c0,0.2,0,0.3,0,0.3V88.4z"/>
	<path id="XMLID_26_" class="st7" d="M33.8,73.2L33.8,73.2C33.8,73.3,33.8,73.3,33.8,73.2c0.2,0,4.6-0.9,6.8-1.1
		c0.5,0,5.3-1.1,9,2.6c0,0-2.6-3.2-3.9-4.4c-2.4-2.6-4.9-6.3-3.3-9.3l0.3-1l0.1-0.3l0.2-0.6l0,0c-1.5,0.4-3.3,2-5.2,5.4
		C36.5,66.7,35.2,69.6,33.8,73.2z"/>
	<path class="st8" d="M51.9,77.9c-1.3,2.3-2.5,5.1-2.9,8l-0.1,0.4c-0.4-2.2-1.4-5.5-3.4-8.8C43.8,74.6,42.2,73,41,72
		c-2.1,0.2-6.6,1.1-7.1,1.2c-0.5-3.3-0.7-5.5-1.1-6c0-0.1-0.2-0.5-0.2-0.5c-0.4,0-5.5,1.8-5.5,2.3c0,0,0.1,0.1,0.1,0.2
		c0.4,3.6,1.8,19,2.8,28.8c2.3,1.1,4.8,2,7.3,2.8c0,0,0,0,0,0c3,0.9,6.2,1.6,9.4,1.8h3.2h4h3.5c3.1-0.3,6.7-0.8,9.6-1.7
		c0.7-7.1,2.5-19.8,3.6-27.7c-0.2,0.1-5.7-1-7.9-1.2c-0.3,0-0.8,0-1,0c-0.9,0.3-3.9-1-7.6,2.7"/>
	<path id="XMLID_24_" class="st7" d="M61.3,61.1c1.6,3-0.9,6.8-3.3,9.3c-1.3,1.2-3.9,4.4-3.9,4.4c3.7-3.7,6.8-2.5,7.6-2.7
		c0.2,0,0.5,0,1,0c2.2,0.2,6.8,1.2,7.2,1.2l0,0v-0.1c-1.4-3.6-2.6-6.3-3.8-8.5c-1.9-3.5-3.7-5.2-5.2-5.5l0,0L61.3,61.1z"/>
</g>
<g>
	<path class="st9" d="M34.9,51.7c0.3,0,0.6-0.1,0.8-0.4c5.2-5.8,4-16.3,3.9-16.7c-0.1-0.6-0.6-1.1-1.3-1c-0.6,0.1-1.1,0.6-1,1.3
		c0,0.1,1.2,10-3.4,14.9c-0.4,0.5-0.4,1.2,0.1,1.6C34.3,51.6,34.6,51.7,34.9,51.7z"/>
</g>
<g>
	<path class="st10" d="M59.8,70.5c0.6,0,1.1-0.5,1.1-1.1V58.1c0-0.6-0.5-1.1-1.1-1.1s-1.1,0.5-1.1,1.1v11.3
		C58.6,70,59.1,70.5,59.8,70.5z"/>
</g>
<g>
	<path class="st10" d="M62.7,68.1L62.7,68.1c0.7-0.1,1.2-0.6,1.1-1.2l-1.2-11.3c-0.1-0.6-0.6-1.1-1.2-1c-0.6,0.1-1.1,0.6-1,1.2
		l1.2,11.3C61.6,67.7,62.1,68.1,62.7,68.1z"/>
</g>
<g>
	<path class="st10" d="M43.5,67.4c0.5,0,1-0.4,1.1-0.9c0-0.2,0-0.3,0-0.4c0-0.2,0-1.1,0-4.6c0-3.6-0.5-6.9-0.6-7
		c-0.1-0.6-0.7-1-1.3-0.9s-1,0.7-0.9,1.3c0,0,0.5,3.2,0.5,6.6c0,2.3,0,3.5,0,4.1c0,0.8,0,1.7,1,1.8C43.4,67.4,43.5,67.4,43.5,67.4z"
		/>
</g>
<g>
	<path class="st10" d="M37.2,60.1c0.4,0,0.9-0.3,1-0.7c3-7.4,1.8-23.1,1.8-23.8c-0.1-0.6-0.6-1.1-1.2-1c-0.6,0-1.1,0.6-1,1.2
		c0,0.2,1.2,15.9-1.6,22.8c-0.2,0.6,0,1.2,0.6,1.5C36.9,60.1,37,60.1,37.2,60.1z"/>
</g>
<g>
	<path class="st10" d="M47.1,52c2.2-2,5.1-2.5,5.1-2.5s3,0.5,5.1,2.5c2.2,2,0,5.5,0,5.5l-0.5-0.6c2.3-4.7-4.6-5-4.6-5s-7,0.3-4.7,5
		L47,57.5C47.1,57.5,44.9,53.9,47.1,52z"/>
</g>
<g>
	<path class="st10" d="M50.9,56c0.6-0.6,1.4-0.5,1.4-0.5s0.8-0.1,1.4,0.5c0.6,0.6,1.9,0.2,1.9,0.2L53,58.4l-0.7-0.7l-0.7,0.7
		L49,56.2C49,56.2,50.3,56.6,50.9,56z"/>
</g>
<g>
	<path class="st10" d="M53.7,23L53.7,23c0.3,0,0.6,0,0.9,0C67,23.5,66.3,34.1,66.3,34.1l0,0c0.1,2.7-0.5,5.3-1.1,8l-0.3-1.3
		c0,0-0.1-1.3-0.7-2.9c0-0.1-0.1-0.2-0.1-0.2c-0.2-0.4-0.4-0.9-0.6-1.3c-3.4-6-11.3-4.1-11.3-4.1s-8-2-11.3,4.1
		c-0.2,0.4-0.4,0.9-0.6,1.3c0,0.1-0.1,0.2-0.1,0.3c-0.6,1.6-0.7,2.8-0.7,2.8L39.2,42c-0.4-1.7-0.7-3.3-0.9-5l0,0
		C39.2,28.5,40.7,23,53.7,23z"/>
</g>
<g>
	<path class="st10" d="M68,53c0.2,0,0.5-0.1,0.7-0.2c0.5-0.4,0.6-1.1,0.2-1.6c-4-5.4-2.8-14.2-2.8-14.3c0.1-0.6-0.3-1.2-1-1.3
		c-0.6-0.1-1.2,0.3-1.3,1c-0.1,0.4-1.3,9.8,3.2,16C67.3,52.8,67.6,53,68,53z"/>
</g>
<g>
	<path class="st10" d="M66.6,62.8c0.2,0,0.3,0,0.5-0.1c0.6-0.3,0.8-0.9,0.6-1.5c-5.6-12.4-1-21.2-1-21.2c0.3-0.6,0.1-1.2-0.5-1.5
		S65,38.4,64.7,39c-0.2,0.4-5.1,9.8,0.8,23.2C65.7,62.5,66.1,62.8,66.6,62.8z"/>
</g>
<g>
	<path class="st10" d="M38.5,67.4c0.4,0,0.9-0.3,1-0.7c3-7.4,0.6-28.5,0.5-29.4c-0.1-0.6-0.6-1.1-1.3-1c-0.6,0.1-1.1,0.6-1,1.3
		c0,0.2,2.5,21.4-0.3,28.3c-0.2,0.6,0,1.2,0.6,1.5C38.2,67.4,38.4,67.4,38.5,67.4z"/>
</g>
<g>
	<path class="st10" d="M64.6,47.4c0,0,0.3,4.3-1.6,6.7c-1.9,2.3-1.9,6.2-1.9,6.2s-1.5-1.3-1.7-2.1c0,0-3.2,3.2-3.1,6.4
		c0,0-1.7-1-1.9-2.6c0,0,0.1,4.2-2.8,6.4c0,0,0.5-4.8-1.9-6.6c0,0,0.3,1.6-1.1,2.7c0,0,1.1-2.1-1.7-4.8c0,0,0.1,1.2-0.9,2.4
		c0,0,0.7-1.3-3.1-4.9c-2.4-2.3-2.5-4.7-2.9-8.1c0,0,6.8,10.4,13.5,9.9l5-2.8l4-3.7L64.6,47.4z"/>
</g>
<g>
	<g>
		<path class="st11" d="M66.1,28.4c-0.8-0.2,0.5-4.9-4.1-8.6c-2.7-2.1-7.2-2.5-10.5-2.5v-5.1c0,0,6-0.5,11.4,3.7
			C68.4,20.3,66.9,28.7,66.1,28.4z"/>
	</g>
	<g>
		<path class="st11" d="M38.4,28.4c0.8-0.2-0.5-4.9,4.1-8.6c2.7-2.1,7.2-2.5,10.5-2.5v-5.1c0,0-6-0.5-11.4,3.7
			C36.2,20.3,37.7,28.7,38.4,28.4z"/>
	</g>
	<g>
		<path class="st12" d="M67.9,36.4c-0.8-0.3,0.6-6.4-4.4-11.1c-2.9-2.8-7.6-3.2-11.2-3.2v-6.6c0,0,7.2-0.7,13,4.8
			C71.1,25.8,68.8,36.6,67.9,36.4z"/>
	</g>
	<g>
		<path class="st12" d="M36.7,36.4c0.9-0.3-0.6-6.4,4.4-11.1C44,22.5,48.7,22,52.3,22v-6.6c0,0-6.4-0.7-12.2,4.8
			C34.2,25.8,35.8,36.6,36.7,36.4z"/>
	</g>
	<g>
		<path class="st13" d="M66,40.7c-0.8-0.3,1.7-6.7-2.5-11.5c-2.7-3.1-7.6-3.4-11.2-3.4V19c0,0,7.2-0.7,13,5
			C71.1,29.8,66.8,41,66,40.7z"/>
	</g>
	<g>
		<path class="st13" d="M37.9,40.3c0.9-0.3-0.7-6.8,3.2-11.1c2.7-3,7.6-3.4,11.2-3.4V19c0,0-7.2-0.7-13,5
			C33.5,29.8,37.1,40.6,37.9,40.3z"/>
	</g>
</g>
<g>
	<path class="st10" d="M41.6,69c0.1,0,0.2,0,0.3,0c0.6-0.2,1-0.8,0.8-1.4c-1.2-4.5,0.1-13.5,0.1-13.6c0.1-0.6-0.3-1.2-0.9-1.3
		c-0.6-0.1-1.2,0.3-1.3,1c-0.1,0.4-1.4,9.6-0.1,14.6C40.7,68.7,41.2,69,41.6,69z"/>
</g>
<g>
	<path class="st10" d="M67.1,70c0.4,0,0.8-0.2,1-0.6c0.3-0.5,0.1-1.2-0.4-1.5c-3.3-1.9-4-10.4-4-13.5c0-0.6-0.5-1.1-1.1-1.1l0,0
		c-0.6,0-1.1,0.5-1.1,1.1c0,1.3,0.2,12.5,5.2,15.4C66.7,69.9,66.9,70,67.1,70z"/>
</g>
<g>
	<path class="st10" d="M69.2,62.4c0.2,0,0.5-0.1,0.7-0.2c0.5-0.4,0.6-1.1,0.2-1.6C66.2,55.4,65.8,47,65.8,47c0-0.6-0.6-1.1-1.2-1.1
		s-1.1,0.5-1.1,1.2c0,0.4,0.4,9.2,4.8,14.9C68.5,62.2,68.9,62.4,69.2,62.4z"/>
</g>
<g>
	<path class="st11" d="M36.1,59.1c0,0.6,0.5,1.1,1.1,1.1s1.1-0.5,1.1-1.1S37.8,58,37.2,58C36.6,58.1,36.1,58.5,36.1,59.1z"/>
</g>
<g>
	<path class="st11" d="M66.6,51.2c0,0.6,0.5,1,1.1,1s1.1-0.4,1.1-1s-0.5-1-1.1-1S66.6,50.7,66.6,51.2z"/>
</g>
<g>
	<path class="st13" d="M66.9,59c0,0.6,0.5,1,1,1c0.6,0,1-0.4,1-1s-0.5-1-1-1S66.9,58.5,66.9,59z"/>
</g>
<g>
	<path class="st13" d="M40.1,58.7c0,0.6,0.5,1.1,1.1,1.1s1.1-0.5,1.1-1.1s-0.5-1.1-1.1-1.1C40.6,57.7,40.1,58.2,40.1,58.7z"/>
</g>
<g>
	<path class="st12" d="M40.1,65.2c0,0.6,0.5,1.1,1.1,1.1s1.1-0.5,1.1-1.1s-0.5-1.1-1.1-1.1C40.6,64.2,40.1,64.7,40.1,65.2z"/>
</g>
<g>
	<path class="st12" d="M33.7,50.6c0,0.6,0.5,1.1,1.1,1.1s1.1-0.5,1.1-1.1s-0.5-1.1-1.1-1.1S33.7,50,33.7,50.6z"/>
</g>
<g>
	<path class="st12" d="M62.5,62.1c0,0.6,0.5,1.1,1.1,1.1s1.1-0.5,1.1-1.1S64.2,61,63.6,61C62.9,61,62.5,61.5,62.5,62.1z"/>
</g>
</svg>
