<?xml version="1.0" encoding="utf-8"?>
<!-- Generator: Adobe Illustrator 22.1.0, SVG Export Plug-In . SVG Version: 6.00 Build 0)  -->
<svg version="1.1" id="Calque_1" xmlns="http://www.w3.org/2000/svg" xmlns:xlink="http://www.w3.org/1999/xlink" x="0px" y="0px"
	 viewBox="0 0 104 103.5" style="enable-background:new 0 0 104 103.5;" xml:space="preserve">
<style type="text/css">
	.st0{fill:#F1F1F1;}
	.st1{fill:#F2E4A7;}
	.st2{fill:#FFDDCA;}
	.st3{fill:#F4CCAF;}
	.st4{fill:#FCD4B5;}
	.st5{fill:#F4F4F4;}
	.st6{fill:#08232D;}
	.st7{fill:#13323D;}
	.st8{fill:#021A21;}
</style>
<circle id="XMLID_8256_" class="st0" cx="51.8" cy="51.7" r="50.8"/>
<g id="XMLID_7217_">
	<path id="XMLID_7228_" class="st1" d="M38.5,69.2c1.3-1.1,1.7-1,1.7-1s-0.1,0.1-0.3,0.2c0,0,0.8,0.2,0.8,0.1
		c4.4-2.6,4.4-7.2,4.5-9.7c-0.5-0.4-1.1-1.1-1.5-1.5c-3.1-3-3.1-10.4-3.8-9.9c-1.7,1.2-2.8-2-3-4c-0.1-1.3,0.1-2.1,0.5-2.3
		c0.2,0,0.4,0,0.6,0c0.1,0.1,0.2,0.1,0.3,0.2c0.1,0.1,0.2,0.2,0.3,0.3c0.2,0.4,0.3,0.7,0.6,0.7c1.5-0.4,4.8-3.3,8.5-6.3
		c4.7-3.7,7.5-4.8,10.3-5.1c0,0,0.2,1.6,3.1,4s3.6,7.4,4.2,7.1c0.4-0.2,0.8,0.1,1.1-0.8c0.7-0.3,1.3,0.6,1.2,2.3
		c-0.2,2-1.4,5-3.1,3.8c-0.8-0.5-0.8,7.2-3.9,10.2c-0.2,0.2-0.5,0.4-0.7,0.6c-0.2,0.2-0.5,0.4-0.7,0.6c0,2.5,0.6,7.2,5.1,9.8
		c0,0,0.1,0,0.1,0.1c-0.2-0.1-0.3-0.2-0.3-0.2s0.7-0.3,2,0.8c0.4,0.3,1.1,0.8,1.8,1.4c0.8,0.3,2.5,0.9,4.5,1.6
		c1.1-1.7,1.4-3.8-0.4-5.8c-5.3-5.6,0.7-4.8,0.4-11c-0.2-3.9-4.4-5.4-3-9.6c2.1-6.7-1.1-18.4-6.1-20.3c-11.9-8-23.4-3.7-27.4,7.1
		c-4.2,11.4,3,12.9-2.2,18.1c-1.7,1.7-2.3,4.4-1.6,6.2c1.3,3.4,4.6,6.9,2.3,9c-2.2,2.1-3.8,4-2.6,6.4c2.2-0.8,4.2-1.5,5.2-1.9
		C37.2,69.6,38.2,69.5,38.5,69.2z"/>
	<path id="XMLID_7227_" class="st2" d="M64,78.1L64,78.1L64,78.1L64,78.1z"/>
	<path id="XMLID_7226_" class="st3" d="M41.6,75.7c0.7,1,1.8,2.8,3.1,5.1c2.7,1.4,5.5,2.3,7.6,2.3s4.9-0.9,7.6-2.3
		c1.3-2.2,2.4-4,3.1-5c2.8-4,2.2-5.6,2.1-6.1c-0.1-0.9-0.5-1.3-0.7-1.5c0,0-0.1,0-0.1-0.1c-4.4-2.6-4.8-6.9-4.9-9.4
		c-0.5,0.4-1,0.8-1.6,1.1c-0.7,0.4-1.5,0.8-2.2,1s-1.5,0.4-2.2,0.5c-0.9,0.1-1.9,0.1-2.8-0.1c-0.8-0.1-1.5-0.3-2.2-0.6
		c-0.8-0.3-1.6-0.7-2.3-1.2c-0.3-0.2-0.6-0.5-0.9-0.7c0,2.5-0.4,6.8-4.9,9.4c0,0-0.1,0-0.1,0.1c-0.2,0.2-0.6,0.7-0.7,1.5
		C39.4,70.1,38.7,71.6,41.6,75.7z"/>
	<path id="XMLID_7225_" class="st4" d="M48.4,60.7c0.7,0.3,1.5,0.5,2.2,0.6c0.9,0.1,1.9,0.2,2.8,0.1c0.7-0.1,1.5-0.2,2.2-0.5
		c0.8-0.3,1.5-0.6,2.2-1c0.6-0.3,1.1-0.7,1.6-1.1c0.2-0.2,0.5-0.4,0.7-0.6c0.2-0.2,0.5-0.4,0.7-0.6c3.1-3,3.1-10.6,3.8-10.1
		c1.7,1.2,2.8-2.3,3-4.3c0.2-1.7-0.4-2.6-1.2-2.3c-0.3,0.9-0.8,0.6-1.1,0.8c-0.6,0.4-1.3-4.7-4.2-7.1c-2.9-2.4-3.1-4-3.1-4
		c-2.9,0.3-5.6,1.4-10.3,5.1c-3.7,3-7,5.9-8.5,6.3c-0.2,0.1-0.3-0.3-0.6-0.7c-0.1-0.1-0.2-0.1-0.3-0.3c-0.1-0.1-0.2-0.2-0.3-0.2
		c-0.2,0-0.4-0.1-0.6,0c-0.5,0.2-0.8,1-0.6,2.3c0.2,2,1.3,5.5,3,4.3c0.8-0.5,0.7,7.1,3.8,10.1c0.5,0.4,0.9,0.8,1.4,1.2
		c0.3,0.2,0.6,0.5,0.9,0.7C46.8,60,47.6,60.4,48.4,60.7z"/>
	<path id="XMLID_7224_" class="st5" d="M64,78.1L64,78.1C64.1,78.1,64.1,78.1,64,78.1L64,78.1L64,78.1z"/>
	<path id="XMLID_7223_" class="st5" d="M44.7,80.7c3.2,5.5,7.2,13.5,7.6,17.1c0.5-3.6,4.5-11.6,7.7-17.1c-2.7,1.4-5.5,2.3-7.6,2.3
		C50.2,83,47.4,82.2,44.7,80.7z"/>
	<path id="XMLID_7222_" class="st6" d="M81.6,75.4L81.6,75.4c-0.9-0.6-5.7-2.4-9.6-3.7c-2-0.7-3.8-1.3-4.5-1.6
		c0.5,0.5,1.1,1.1,1.5,1.8c1.4,2.6,1.5,4.2,2.5,4.9c0.9,0.7-6.8,1.3-7.8,1.3c0,0,0,0,0,0.1l5.6,4.2c0,0-6.3,7.2-10.6,10.3
		c-1.3,1-2.6,2.7-3.7,4c-1.3,1.4-1.4,2.2-2.4,3.9l0,0c0.2,0.7,0.3,1.4,0.4,1.8c0,0.1,0,0.2,0,0.3c7.8-0.2,15.2-2.2,21.8-5.6
		C74.9,92.2,74.7,78.5,81.6,75.4z"/>
	<path id="XMLID_7221_" class="st7" d="M53.3,100.6c-1.2-1-2.3-2.5-3.5-3.9c-1.1-1.2-2.4-3-3.7-4c-4.3-3.1-10.7-10.3-10.7-10.3
		l5.6-4.3c0,0-9-0.6-7.9-1.3c1-0.8,1.1-2.3,2.5-4.9c0.4-0.8,1-1.4,1.6-1.9c-0.9,0.4-3,1.1-5.2,1.9c-4,1.4-8.7,3.2-9,3.6
		c0,0.1-0.1,0.1-0.1,0.2c0.1-0.1,0.2-0.2,0.4-0.2c7.2,3.2,6.6,17.9,6.8,22.2c6.7,3.2,14.3,5.1,22.2,5.1c0.5,0,1,0,1.4,0
		c0-0.1,0-0.2,0-0.3C53.6,102,53.4,101.3,53.3,100.6z"/>
	<path id="XMLID_7220_" class="st8" d="M64.1,68c0,0,0.1,0.1,0.3,0.2c0.2,0.2,0.6,0.7,0.7,1.5c0.1,0.5,0.8,2.1-2.1,6.1
		c-0.7,1-1.8,2.8-3.1,5c-3.1,5.6-7.1,13.6-7.6,17.3c-0.4-3.6-4.5-11.6-7.6-17.1c-1.3-2.2-2.4-4.1-3.1-5.1c-2.8-4-2.2-5.6-2.1-6.1
		c0.1-0.8,0.5-1.3,0.7-1.5c0.2-0.1,0.3-0.2,0.3-0.2s-0.7-0.3-2,0.8c-0.3,0.3-1,0.7-1.7,1.3c-0.6,0.5-1.4,1.2-1.6,1.9
		c-1.4,2.6-1.5,4.2-2.5,4.9c-1,0.8,7.9,1.3,7.9,1.3L35,82.6c0,0,6.3,7.2,10.6,10.3c1.3,1,2.6,2.7,3.7,4c1.3,1.4,2.3,2.8,3.5,3.9l0,0
		c1-1.7,1.2-2.5,2.4-3.9c1.1-1.2,2.4-3,3.7-4c4.3-3.1,10.6-10.3,10.6-10.3L64,78.4h-0.1l0,0l0,0c0,0,0,0,0.1,0
		c1-0.1,8.8-0.6,7.8-1.3c-1-0.8-1.1-2.3-2.5-4.9c-0.4-0.7-1-1.3-1.5-1.8c-0.7-0.7-1.4-1.1-1.8-1.4C64.9,67.8,64.1,68,64.1,68z"/>
	<path id="XMLID_7219_" class="st8" d="M81.7,75.4L81.7,75.4c-7.1,3.1-6.9,16.8-7,21.7c4.1-2.1,7.9-4.8,11.2-7.8
		C84.2,81.7,82.6,75.6,81.7,75.4z"/>
	<path id="XMLID_7218_" class="st8" d="M23.3,75.4c-0.1,0-0.2,0-0.4,0.2c-1,1.1-2.6,7.2-4.2,14.5c3.4,3,7.3,5.6,11.4,7.6
		C30,93.5,30.5,78.6,23.3,75.4z"/>
</g>
</svg>
