<?xml version="1.0" encoding="utf-8"?>
<!-- Generator: Adobe Illustrator 22.1.0, SVG Export Plug-In . SVG Version: 6.00 Build 0)  -->
<svg version="1.1" id="Calque_1" xmlns="http://www.w3.org/2000/svg" xmlns:xlink="http://www.w3.org/1999/xlink" x="0px" y="0px"
	 viewBox="0 0 104 103.5" style="enable-background:new 0 0 104 103.5;" xml:space="preserve">
<style type="text/css">
	.st0{fill:#F1F1F1;}
	.st1{fill:none;}
	.st2{fill:#F2AF81;}
	.st3{fill:#FFB886;}
	.st4{fill:#F6F4F9;}
	.st5{clip-path:url(#SVGID_2_);}
	.st6{opacity:0.5;clip-path:url(#SVGID_4_);fill:#333333;enable-background:new    ;}
	.st7{opacity:0.5;clip-path:url(#SVGID_6_);fill:#333333;enable-background:new    ;}
	.st8{opacity:0.5;clip-path:url(#SVGID_8_);fill:#3A3A3A;enable-background:new    ;}
	.st9{opacity:0.5;clip-path:url(#SVGID_10_);fill:#3A3A3A;enable-background:new    ;}
	.st10{opacity:0.5;clip-path:url(#SVGID_12_);fill:#3A3A3A;enable-background:new    ;}
	.st11{opacity:0.5;clip-path:url(#SVGID_14_);fill:#3A3A3A;enable-background:new    ;}
</style>
<g id="Calque_1_1_">
	<circle id="XMLID_8255_" class="st0" cx="51.7" cy="52.1" r="51.1"/>
	<g id="XMLID_7179_">
		<path id="XMLID_7216_" class="st1" d="M67,39.6L67,39.6L67,39.6z"/>
		<path id="XMLID_7215_" class="st1" d="M38.1,41.3L38.1,41.3L38.1,41.3z"/>
		<path id="XMLID_7214_" class="st1" d="M65.2,41.2C65.2,41.4,65.3,41.4,65.2,41.2c0.2-0.2,0.4-0.7,0.8-1.1
			C65.7,40.4,65.4,40.8,65.2,41.2z"/>
		<path id="XMLID_7213_" class="st2" d="M51.5,72.8c6.3,0,10.9-3.5,12.3-6.8c-2.9-2.5-3.6-5.7-3.7-8.1c-2,1.7-3.3,2.6-5.2,3
			c-1.3,0.5-2.6,0.7-3.2,0.7c-0.6,0-1.9-0.2-3.2-0.7c-2.1-0.4-3.5-1.6-6-3.7c0,2.4-0.5,6-3.7,8.8C40.2,69.4,45.1,72.8,51.5,72.8z"/>
		<path id="XMLID_88_" class="st3" d="M54.8,61c1.9-0.4,3.2-1.3,5.2-3c0.3-0.3,0.6-0.5,0.9-0.8c3.8-3.3,1.9-10.1,4.2-9.6
			c2.3,0.4,5-6,3.2-7.4c-0.4-0.3-0.8-0.5-1.2-0.5c-0.1,0-0.1,0-0.2,0l0,0c-0.4,0.1-0.7,0.3-1,0.5c-0.3,0.4-0.6,0.9-0.7,1.2
			c0,0.1-0.1,0.1-0.1-0.1c-0.4,0.8-0.7,0.2-1,0.2c-0.6,0-1.4-5.4-2.2-5.2c-0.5,0.1-0.3,1.1-1.7,0.7c-1.4-0.4-4.8-3.9-4.8-3.1
			c0,0.9,2.1,2.9-1.5,1.7c-3.5-1.2-6.8-5.4-6.8-3.2s-1.5-2.2-1.6,0c-0.1,2.8-6.9,6-6.6,8.2c0.3,2.1-0.3,0.9-1.1,0.7c0,0,0,0,0-0.1
			c-1.5-2.3-2.1-1.1-2.6-1.5c-0.2,0.1-0.3,0.2-0.5,0.3c-1.8,1.4,0.8,7.9,3.2,7.4c2.3-0.4,0.4,6.4,4.2,9.6c0.1,0,0.1,0.1,0.2,0.1
			c2.5,2.1,3.9,3.2,6,3.7"/>
		<path id="XMLID_87_" class="st3" d="M51.7,61.6"/>
		<path id="XMLID_7207_" class="st4" d="M18.4,73.9c0.1-0.2,0.3-0.4,0.4-0.6C18.7,73.5,18.5,73.6,18.4,73.9z"/>
		<path id="XMLID_7206_" class="st4" d="M16.6,77.2c0-0.1,0.1-0.2,0.1-0.3C16.7,77,16.6,77.1,16.6,77.2z"/>
		<path id="XMLID_7205_" class="st4" d="M18,74.4c0.1-0.1,0.1-0.2,0.2-0.3C18.2,74.2,18.1,74.3,18,74.4z"/>
		<path id="XMLID_7204_" class="st4" d="M20.1,72.1c0,0,0.1,0,0.1-0.1C20.2,72.1,20.2,72.1,20.1,72.1z"/>
		<path id="XMLID_7203_" class="st4" d="M19.6,72.5l0.1-0.1C19.7,72.4,19.7,72.4,19.6,72.5z"/>
		<path id="XMLID_7202_" class="st4" d="M19,73.1c0.1-0.1,0.1-0.2,0.2-0.2C19.2,72.9,19.1,73,19,73.1z"/>
		<path id="XMLID_7199_" class="st4" d="M83.6,72.4L83.6,72.4L83.6,72.4z"/>
		<path id="XMLID_7198_" class="st4" d="M83,72.1C83,72.1,83.1,72.1,83,72.1C83.1,72.1,83.1,72.1,83,72.1z"/>
		<path id="XMLID_7197_" class="st4" d="M85.1,74.1c0.1,0.1,0.1,0.2,0.2,0.3C85.2,74.3,85.1,74.2,85.1,74.1z"/>
		<path id="XMLID_7196_" class="st4" d="M84.5,73.3c0.1,0.2,0.3,0.4,0.4,0.6C84.8,73.6,84.6,73.5,84.5,73.3z"/>
		<path id="XMLID_7195_" class="st4" d="M84.1,72.8c0.1,0.1,0.1,0.2,0.2,0.2C84.2,73,84.1,72.9,84.1,72.8z"/>
		<path id="XMLID_7193_" class="st4" d="M86.6,77c0,0.1,0.1,0.2,0.1,0.3C86.7,77.1,86.6,77,86.6,77z"/>
		<path id="XMLID_7192_" class="st4" d="M82.6,71.9L82.6,71.9L82.6,71.9L82.6,71.9L82.6,71.9z"/>
		<path id="XMLID_7191_" d="M81.9,71.8c0,0.1,0,0.3-0.1,0.6l-18.4-1.1c-1.8,1.5-6.2,1.5-7.9,4.8l25.7-0.2V76l3.7-1.7l0,0
			c0-0.1-0.1-0.1-0.1-0.2c-0.1-0.1-0.1-0.2-0.2-0.3c-0.1-0.1-0.1-0.2-0.2-0.2c-0.1-0.2-0.3-0.4-0.4-0.6c-0.1-0.1-0.1-0.2-0.2-0.2
			c-0.1-0.1-0.1-0.2-0.2-0.2c-0.1-0.1-0.3-0.2-0.4-0.3l-0.1-0.1C83,72.1,82.8,72,82.7,72c0,0-0.1,0-0.1-0.1
			c-0.2-0.1-0.3-0.1-0.5-0.2l0,0l0,0C82,71.7,81.9,71.7,81.9,71.8C81.9,71.7,81.9,71.7,81.9,71.8z"/>
		<path id="XMLID_7186_" d="M66.2,70.3h12.7H79c-3.6-1.4-9.1-3.1-11.9-3.8l1.2,0.3C67.9,67.9,67.2,69.1,66.2,70.3z"/>
	</g>
	<g>
		<g>
			<g>
				<g>
					<g>
						<defs>
							<path id="SVGID_1_" d="M67.5,37.6H35.2c0-0.3,0-0.6,0-1c0-1.4,0.1-2.6,0.3-3.8c0.1-1.2,0.3-2.3,0.6-3.3c0.5-2.1,1.2-4,2-5.5
								c2.5-4.5,6.2-6.5,9.8-7.2c1.2-0.2,2.4-0.3,3.5-0.3c0.8,0,1.7,0.1,2.6,0.2c3.6,0.5,7.6,2.3,10.2,6.6c0.8,1.3,1.5,2.8,2.1,4.6
								c0.4,1.2,0.7,2.6,0.9,4.1c0.2,1.4,0.3,3,0.4,4.7C67.5,37,67.5,37.3,67.5,37.6z"/>
						</defs>
						<clipPath id="SVGID_2_">
							<use xlink:href="#SVGID_1_"  style="overflow:visible;"/>
						</clipPath>
						<path class="st5" d="M67.5,36H35.2c0-0.3,0-0.6,0-1c0-1.4,0.1-2.6,0.3-3.8c0.1-1.2,0.3-2.3,0.6-3.3c0.5-2.1,1.2-4,2-5.5
							c2.5-4.5,6.2-6.5,9.8-7.2c1.2-0.2,2.4-0.3,3.5-0.3c0.8,0,1.7,0.1,2.6,0.2c3.6,0.5,7.6,2.3,10.2,6.6c0.8,1.3,1.5,2.8,2.1,4.6
							c0.4,1.2,0.7,2.6,0.9,4.1c0.2,1.4,0.3,3,0.4,4.7C67.5,35.3,67.5,35.6,67.5,36z"/>
					</g>
				</g>
			</g>
			<g>
				<g>
					<g>
						<defs>
							<path id="SVGID_3_" d="M67.5,37.6H35.2c0-0.3,0-0.6,0-1c0-1.4,0.1-2.6,0.3-3.8c0.1-1.2,0.3-2.3,0.6-3.3c0.5-2.1,1.2-4,2-5.5
								c2.5-4.5,6.2-6.5,9.8-7.2c1.2-0.2,2.4-0.3,3.5-0.3c0.8,0,1.7,0.1,2.6,0.2c3.6,0.5,7.6,2.3,10.2,6.6c0.8,1.3,1.5,2.8,2.1,4.6
								c0.4,1.2,0.7,2.6,0.9,4.1c0.2,1.4,0.3,3,0.4,4.7C67.5,37,67.5,37.3,67.5,37.6z"/>
						</defs>
						<clipPath id="SVGID_4_">
							<use xlink:href="#SVGID_3_"  style="overflow:visible;"/>
						</clipPath>
						<path class="st6" d="M35.6,20c0,0,12.4-2.3,17.4-1.9S66.2,20,66.2,20v1.5c0,0-8-1.7-16.3-0.8c-8.2,1-14.4,1.1-14.4,1.1
							L35.6,20L35.6,20z"/>
					</g>
				</g>
			</g>
			<g>
				<g>
					<g>
						<defs>
							<path id="SVGID_5_" d="M67.5,37.6H35.2c0-0.3,0-0.6,0-1c0-1.4,0.1-2.6,0.3-3.8c0.1-1.2,0.3-2.3,0.6-3.3c0.5-2.1,1.2-4,2-5.5
								c2.5-4.5,6.2-6.5,9.8-7.2c1.2-0.2,2.4-0.3,3.5-0.3c0.8,0,1.7,0.1,2.6,0.2c3.6,0.5,7.6,2.3,10.2,6.6c0.8,1.3,1.5,2.8,2.1,4.6
								c0.4,1.2,0.7,2.6,0.9,4.1c0.2,1.4,0.3,3,0.4,4.7C67.5,37,67.5,37.3,67.5,37.6z"/>
						</defs>
						<clipPath id="SVGID_6_">
							<use xlink:href="#SVGID_5_"  style="overflow:visible;"/>
						</clipPath>
						<path class="st7" d="M68.2,28.6c0,0-14,2.3-19.6,1.9s-14.9-1.9-14.9-1.9v-1.5c0,0,9,1.7,18.3,0.8c9.3-1,16.2-1.1,16.2-1.1
							V28.6z"/>
					</g>
				</g>
			</g>
			<g>
				<g>
					<g>
						<defs>
							<path id="SVGID_7_" d="M67.5,37.6H35.2c0-0.3,0-0.6,0-1c0-1.4,0.1-2.6,0.3-3.8c0.1-1.2,0.3-2.3,0.6-3.3c0.5-2.1,1.2-4,2-5.5
								c2.5-4.5,6.2-6.5,9.8-7.2c1.2-0.2,2.4-0.3,3.5-0.3c0.8,0,1.7,0.1,2.6,0.2c3.6,0.5,7.6,2.3,10.2,6.6c0.8,1.3,1.5,2.8,2.1,4.6
								c0.4,1.2,0.7,2.6,0.9,4.1c0.2,1.4,0.3,3,0.4,4.7C67.5,37,67.5,37.3,67.5,37.6z"/>
						</defs>
						<clipPath id="SVGID_8_">
							<use xlink:href="#SVGID_7_"  style="overflow:visible;"/>
						</clipPath>
						<path class="st8" d="M68.2,24.4c0,0-14,0.9-19.6,0.7C43,25,33.7,24.4,33.7,24.4v-0.6c0,0,9,0.7,18.3,0.3
							c9.3-0.4,16.2-0.4,16.2-0.4V24.4z"/>
					</g>
				</g>
			</g>
			<g>
				<g>
					<g>
						<defs>
							<path id="SVGID_9_" d="M67.5,37.6H35.2c0-0.3,0-0.6,0-1c0-1.4,0.1-2.6,0.3-3.8c0.1-1.2,0.3-2.3,0.6-3.3c0.5-2.1,1.2-4,2-5.5
								c2.5-4.5,6.2-6.5,9.8-7.2c1.2-0.2,2.4-0.3,3.5-0.3c0.8,0,1.7,0.1,2.6,0.2c3.6,0.5,7.6,2.3,10.2,6.6c0.8,1.3,1.5,2.8,2.1,4.6
								c0.4,1.2,0.7,2.6,0.9,4.1c0.2,1.4,0.3,3,0.4,4.7C67.5,37,67.5,37.3,67.5,37.6z"/>
						</defs>
						<clipPath id="SVGID_10_">
							<use xlink:href="#SVGID_9_"  style="overflow:visible;"/>
						</clipPath>
						<path class="st9" d="M68.2,32.7c0,0-14,0.9-19.6,0.7c-5.6-0.1-14.9-0.7-14.9-0.7v-0.6c0,0,9,0.7,18.3,0.3S68.2,32,68.2,32
							V32.7z"/>
					</g>
				</g>
			</g>
			<g>
				<g>
					<g>
						<defs>
							<path id="SVGID_11_" d="M67.5,37.6H35.2c0-0.3,0-0.6,0-1c0-1.4,0.1-2.6,0.3-3.8c0.1-1.2,0.3-2.3,0.6-3.3c0.5-2.1,1.2-4,2-5.5
								c2.5-4.5,6.2-6.5,9.8-7.2c1.2-0.2,2.4-0.3,3.5-0.3c0.8,0,1.7,0.1,2.6,0.2c3.6,0.5,7.6,2.3,10.2,6.6c0.8,1.3,1.5,2.8,2.1,4.6
								c0.4,1.2,0.7,2.6,0.9,4.1c0.2,1.4,0.3,3,0.4,4.7C67.5,37,67.5,37.3,67.5,37.6z"/>
						</defs>
						<clipPath id="SVGID_12_">
							<use xlink:href="#SVGID_11_"  style="overflow:visible;"/>
						</clipPath>
						<path class="st10" d="M68.2,18.1c0,0-14,0.9-19.6,0.7c-5.6-0.1-14.9-0.7-14.9-0.7v-0.6c0,0,9,0.7,18.3,0.3
							c9.3-0.4,16.2-0.4,16.2-0.4V18.1z"/>
					</g>
				</g>
			</g>
			<g>
				<g>
					<g>
						<defs>
							<path id="SVGID_13_" d="M67.5,37.6H35.2c0-0.3,0-0.6,0-1c0-1.4,0.1-2.6,0.3-3.8c0.1-1.2,0.3-2.3,0.6-3.3c0.5-2.1,1.2-4,2-5.5
								c2.5-4.5,6.2-6.5,9.8-7.2c1.2-0.2,2.4-0.3,3.5-0.3c0.8,0,1.7,0.1,2.6,0.2c3.6,0.5,7.6,2.3,10.2,6.6c0.8,1.3,1.5,2.8,2.1,4.6
								c0.4,1.2,0.7,2.6,0.9,4.1c0.2,1.4,0.3,3,0.4,4.7C67.5,37,67.5,37.3,67.5,37.6z"/>
						</defs>
						<clipPath id="SVGID_14_">
							<use xlink:href="#SVGID_13_"  style="overflow:visible;"/>
						</clipPath>
						<path class="st11" d="M68.2,28.6c0,0-14,0.9-19.6,0.7c-5.6-0.1-14.9-0.7-14.9-0.7V28c0,0,9,0.7,18.3,0.3
							c9.3-0.4,16.2-0.4,16.2-0.4V28.6z"/>
					</g>
				</g>
			</g>
		</g>
	</g>
	<path d="M68.6,35.6c-0.7-2.3-17.3-1.9-17.3-1.9S34.8,33.4,34,35.6c-0.7,2.3-0.7,5.5,1.9,6.1c2.7,0.6,15.3,0.6,15.3,0.6
		s12.7,0,15.3-0.6C69.4,41.1,69.4,37.9,68.6,35.6z"/>
	<ellipse class="st3" cx="51.6" cy="59.5" rx="4.6" ry="2.2"/>
	<path d="M79.3,87.9"/>
	<path d="M60.8,47.4c-0.4,0-4.7,1.4-9.1,1.4c-4.5,0-9-1.4-9.4-1.4c-0.9,0-0.8,1.2-0.8,1.2s0.2,4.6,2.3,7.3c1.7,2.2,3.8,3.3,5,3.9
		c0.8,0.4,2,0.5,2.6,0.6l0,0c0,0,0.1,0,0.2,0c0.1,0,0.2,0,0.2,0l0,0c0.6,0,1.9-0.2,2.6-0.6c1.2-0.6,3.3-1.6,5-3.9
		c2.1-2.8,2.3-7.3,2.3-7.3S61.6,47.4,60.8,47.4z"/>
	<g>
		<line class="st1" x1="42.3" y1="48.2" x2="39.1" y2="41.5"/>
		<polygon points="41.6,48.5 39.1,41.5 42.9,47.9 		"/>
	</g>
	<g>
		<polygon points="61.6,48.5 64.1,41.5 60.3,47.9 		"/>
	</g>
	<path class="st0" d="M28.1,69.4"/>
</g>
<path d="M89.1,83.3c-0.1-0.5-0.3-1-0.5-1.4c0-0.1,0-0.1-0.1-0.2c-0.1-0.2-0.1-0.3-0.2-0.5c-0.3-0.8-0.5-1.5-0.8-2.2
	c-0.1-0.3-0.2-0.6-0.3-0.9c-0.2-0.6-0.5-1.2-0.7-1.6c-1.1-2.6-2.3-3.8-4.6-5c-0.6-0.3-1.7-0.8-3.1-1.3l0,0c-2.8-1-7.2-2.3-10.7-3.3
	c0,0,0-0.1,0.1-0.1L67,66.6l-2.9-0.7c-0.2-0.2-0.4-0.3-0.6-0.5c-0.5-0.5-2.1-2.3-3-4.8c-0.1-0.6-5,2.5-9.5,2.7
	c-4.4-0.1-9.3-3.2-9.5-2.7c-0.9,2.9-3.1,4.9-3.1,4.9c0,0.1,0,0.2,0,0.3l-2.6,0.7L34.5,67c-3,0.8-7.4,2.2-10.5,3.4
	c-1.9,0.7-3.2,1.3-3.5,1.6c-0.1,0-0.2,0.1-0.3,0.1c0,0-0.1,0-0.1,0.1c-0.1,0.1-0.3,0.1-0.4,0.2l-0.1,0.1c-0.1,0.1-0.3,0.2-0.4,0.3
	S19.1,73,19,73c-0.1,0.1-0.1,0.1-0.2,0.2c-0.1,0.2-0.3,0.4-0.4,0.6c-0.1,0.1-0.1,0.2-0.2,0.2c-0.1,0.1-0.1,0.2-0.2,0.3
	c0,0.1-0.1,0.1-0.1,0.2c-0.4,0.6-0.7,1.4-1.1,2.2c0,0.1-0.1,0.2-0.1,0.3c0,0.1-0.1,0.2-0.1,0.3c-0.3,0.6-0.5,1.2-0.8,1.9
	s-0.5,1.4-0.8,2.1c-0.3,0.8-0.6,1.6-0.8,2.4l0.2,0.1h-0.2c-0.2,0.7-0.5,1.5-0.7,2.2c1.7,1.9,3.5,3.6,5.4,5.2
	c0.3,0.2,0.5,0.4,0.8,0.6c0.7,0.8,2.6,2.2,6.3,4.5c2.2,1.3,9.4,4.2,9.4,4.2s4.8,1.6,9.8,2.2s10.3,0.3,10.3,0.3s9.2-0.3,19-5.2
	C84.3,92.9,90,85.9,90,85.9S89.6,84.8,89.1,83.3z"/>
</svg>
