<?xml version="1.0" encoding="utf-8"?>
<!-- Generator: Adobe Illustrator 22.1.0, SVG Export Plug-In . SVG Version: 6.00 Build 0)  -->
<svg version="1.1" id="Calque_1" xmlns="http://www.w3.org/2000/svg" xmlns:xlink="http://www.w3.org/1999/xlink" x="0px" y="0px"
	 viewBox="0 0 104 103.5" style="enable-background:new 0 0 104 103.5;" xml:space="preserve">
<style type="text/css">
	.st0{fill:#F1F1F1;}
	.st1{fill:#F2AF81;}
	.st2{fill:#684532;}
	.st3{fill:#2D2C2B;}
	.st4{fill:#06827C;}
	.st5{fill:#FCC29A;}
	.st6{fill:#1D9995;}
	.st7{fill:none;stroke:#2D2C2B;stroke-width:0.18;stroke-miterlimit:10;}
</style>
<circle id="XMLID_20_" class="st0" cx="52.4" cy="52.5" r="51.1"/>
<path id="XMLID_15_" class="st1" d="M41.9,65.4c0.3-0.1,0.4-0.1,0.3-0.1c-0.2,0-0.4,0.1-0.5,0.2c-0.2,0.2-0.5,0.6-0.6,1.2
	c-0.1,0.4-1.3,2,1.4,5.4c2,2.5,8,12.3,9.9,17.4l0.8,0.2l1.7,0.3c1.9-5.1,7.2-15.2,9.2-17.7c2.7-3.4,1.9-5.1,1.9-5.6
	c-0.6-0.3-1.6-1.3-1.6-1.3s0,0,0.1,0c-0.5-0.4-0.9-0.8-1.3-1.2c-1.9-2-2.5-4.5-2.6-6.4c-0.5,0.4-1.1,0.8-1.7,1.2
	c-0.7,0.4-1.5,0.8-2.3,1c-0.7,0.2-1.5,0.4-2.2,0.5c-0.9,0.1-1.9,0.1-2.8-0.1c-0.8-0.1-1.5-0.3-2.2-0.6c-0.8-0.3-1.6-0.7-2.3-1.2
	c-0.3-0.2-0.7-0.5-1-0.7c-0.2,1.9-0.7,4.4-2.7,6.5C42.8,64.6,42.4,65,41.9,65.4C42,65.3,42,65.3,41.9,65.4L41.9,65.4z"/>
<g>
	<path class="st2" d="M38.3,40c0,0-1.9-17.9,15-18.5S67.7,40,67.7,40s-0.8,0.1-1.2,1.3l-21.5-8l-5.4,8.1
		C39.7,41.4,39.4,40.1,38.3,40z"/>
	<path class="st2" d="M61,21.5c0,4.4-3.6,8-8,8s-8-3.6-8-8s3.6-8,8-8C57.5,13.5,61,17.1,61,21.5z"/>
</g>
<path class="st3" d="M54.7,41.4H54v0.2c0.1,0,0.2,0.1,0.2,0.1c0,0.1,0.1,0.4,0.1,0.8h0.2C54.6,42.1,54.6,41.7,54.7,41.4z"/>
<g id="XMLID_1_">
	<path id="XMLID_17_" class="st4" d="M30.8,99c-0.4-4.5-0.4-9.8-0.8-14.8C29.5,77,28.1,71,28.1,70.5c0,0,0,0,0-0.1
		c-0.3-0.1-0.7-0.2-1.2,0c-2.2,0.7-5.4,7.6-7.2,15.5c-0.4,1.6-0.8,3.3-1.2,5C22.2,94.2,26.3,96.9,30.8,99z"/>
	<path id="XMLID_16_" class="st4" d="M78.4,70.5c0,0.5-1.4,6.5-1.9,13.7c-0.3,4.5-0.3,9.4-0.7,13.6c4.2-2.2,8-5,11.5-8.2
		c-0.3-1.3-0.6-2.5-0.9-3.7c-1.8-7.9-5-14.8-7.2-15.5c-0.3-0.1-0.6-0.1-0.9-0.1C78.4,70.4,78.4,70.5,78.4,70.5z"/>
	<path id="XMLID_14_" class="st5" d="M40.6,46.7c0.8-0.5,0.7,7.1,3.9,10.1c0.4,0.4,0.9,0.8,1.4,1.2c0.3,0.3,0.7,0.5,1,0.7
		c0.7,0.5,1.5,0.9,2.3,1.2c0.7,0.3,1.5,0.5,2.2,0.6c0.9,0.1,1.9,0.2,2.8,0.1c0.7-0.1,1.5-0.2,2.2-0.5c0.8-0.3,1.5-0.6,2.3-1
		c0.6-0.3,1.1-0.8,1.7-1.2c0.2-0.2,0.5-0.3,0.7-0.5s0.5-0.4,0.7-0.6c3.1-3,3.1-10.7,3.9-10.1c0.8,0.5,1.5,0.1,2-0.8
		c0.6-1,1-2.5,1.1-3.6c0.2-1.6-0.3-2.4-1-2.4c-0.9,0.2-1.1,1.1-1.3,1.3c-0.5,0.5-1.3-4.7-4.2-7.1c-2.9-2.4-3.1-4-3.1-4
		c-2.9,0.3-4.4-5.3-9.1-1.5c-3.7,3-7.1,6-8.6,6.3C41,35.2,40,40.2,38.6,40c-0.1,0-0.3,0-0.5,0.2c-0.4,0.3-0.6,1.1-0.5,2.2
		c0.1,0.8,0.3,1.9,0.7,2.8C38.8,46.5,39.6,47.4,40.6,46.7z"/>
	<path id="XMLID_3_" class="st4" d="M65.5,66.5c0.2,0.1,0.4,0.2,0.6,0.4c0.2,0.2,0.7,0.5,1.2,0.8c0-0.3,0.1-0.5,0.1-0.7"/>
	<path class="st6" d="M78.4,70.4c-0.6-0.5-3.7-1.4-6.8-2.2v-0.1L67.3,67c0,0-2,6.8-1.8,15.1c-1.9,1.6-4.1,3.4-6,4.6
		c-0.7,0.4-1.7,1.4-2.9,2.5L56,89.3l-6.1,0.1c-1.4-1.4-2.6-2.5-3.3-2.9c-1.8-1.1-3.9-2.8-5.7-4.4c0.1-8.2-1.8-15-1.8-15
		s-10.7,3-10.9,3.5c0,0,0,0,0,0.1C28,71,29.4,77,29.9,84.2c0.3,4.9,0.3,10.3,0.8,14.8c1.3,0.6,2.7,1.2,4.1,1.7
		c0.2,0.2,0.5,0.3,0.8,0.3c0,0,17.5,6.1,35.2-0.8c0-0.1,0.1-0.2,0.1-0.3c0,0.1,0,0.2,0,0.2c1.7-0.7,3.4-1.5,5-2.3
		c0.3-4.2,0.3-9.1,0.7-13.6C77.1,77,78.5,71,78.4,70.4C78.5,70.5,78.5,70.4,78.4,70.4z M40.4,88.5L40.4,88.5L40.4,88.5
		C40.4,88.4,40.4,88.4,40.4,88.5z M49.8,89.4L49.8,89.4L49.8,89.4L49.8,89.4z"/>
	<path id="XMLID_5_" class="st4" d="M66.6,66.9c-0.1-0.1-0.3-0.2-0.4-0.3c-0.8-0.5-1.3-0.4-1.4-0.4s-0.1,0-0.1,0s0,0.1,0.1,0.1
		c0.1,0.1,0.1,0.1,0.2,0.2c0.2,0.2,0.5,0.5,0.6,1.2c0,0.5,0.7,1.8-2,5.2c-2,2.6-7.6,11.3-9.4,16.4h2.7c1.3-1.4,2.6-2.5,3.3-2.9
		c2-1.3,4.5-3.4,6.4-5c0.1-1.6,0.1-3.3,0.2-4.9c0,0-0.1-0.9,0-1.7c0.2-3,0.4-5.8,0.6-7.2C67,67.4,66.7,67.2,66.6,66.9z"/>
	<path class="st4" d="M39.2,67.7c0.2,1.4,0.4,4.2,0.6,7.2c0,1.2,0,1.7,0,1.7c0.1,1.6,0.1,3.3,0.2,4.9c1.9,1.6,4.4,3.7,6.4,5
		c0.7,0.4,2,1.5,3.3,2.9h2.7C50.6,84.3,45,75.6,43,73c-2.7-3.4-2-4.7-2-5.2c0.1-0.7,0.4-1,0.6-1.2c0.1-0.1,0.1-0.1,0.2-0.2
		c0.1,0,0.1-1,0.1-1s-0.2,0-0.6,0.6c-0.1,0.1-0.1,0.2-0.9,0.7l-0.1,0.1L39.1,67C39.1,67.2,39.2,67.3,39.2,67.7"/>
	<path class="st3" d="M63.7,39.5c-0.6-0.1-2.5-0.5-4.2-0.5c-2.1,0-3.5,0.5-4.1,1.1c-0.6,0.5-0.6,0.9-1.3,0.9c-0.4,0-0.7,0-0.9,0H53
		c-0.2,0-0.5,0-0.9,0c-0.7,0-0.7-0.4-1.3-0.9s-2-1.1-4.1-1.1c-1.8,0-3.6,0.4-4.2,0.5c-0.6,0.1-1.2,0.2-1.2,0.2v1.8l0.7,0.1
		c0,3.1,1.3,4.5,2.7,5.3s4,1,5.5-0.8c1.5-1.7,1.7-4.1,1.8-4.4c0.1-0.2,0.7-0.2,1.1-0.2h0.2c0.3,0,1,0,1.1,0.2
		c0.1,0.3,0.2,2.7,1.8,4.4c1.5,1.7,4.1,1.6,5.5,0.8s2.7-2.3,2.7-5.3l0.7-0.1v-1.8C64.9,39.7,64.3,39.7,63.7,39.5z M51.1,44.3
		c-1,2.3-2.5,3.2-4.7,3c-3-0.4-3.8-2.9-4-3.8c-0.2-0.8-0.5-2.7,0.6-3.5c0.3-0.3,2.1-0.6,3.8-0.6c1.9,0,3.4,0.5,4.1,1.2
		C51.5,41.2,52,42.2,51.1,44.3z M63.8,43.5c-0.2,0.8-1,3.4-4,3.8c-2.2,0.3-3.6-0.7-4.7-3c-0.9-2.1-0.5-3.1,0.2-3.8s2.1-1.2,4.1-1.2
		c1.7,0,3.5,0.4,3.8,0.6C64.3,40.8,64,42.7,63.8,43.5z"/>
</g>
<path class="st4" d="M37.7,67.5l5.8-3.4c0,0-1.8,6.7,2.2,11.2c3.9,4.6,6.7,14,6.7,14h-2.7L40,81.5L37.7,67.5z"/>
<path class="st4" d="M69.3,67.5l-5.8-3.4c0,0,1.8,6.7-2.2,11.2c-3.9,4.6-6.7,14-6.7,14h2.7l9.7-7.9L69.3,67.5z"/>
<path class="st7" d="M54.5,41.6c0,0,0.6,6.8,5.9,5.6"/>
<path class="st3" d="M38.8,39.9l2.5-0.2v1.8l-2-1C39.3,40.5,39.1,40.1,38.8,39.9z"/>
<path class="st3" d="M67.2,40.3l-2.1-0.6v1.8l1.8-0.5C66.9,40.9,67,40.6,67.2,40.3z"/>
</svg>
