<?xml version="1.0" encoding="utf-8"?>
<!-- Generator: Adobe Illustrator 22.1.0, SVG Export Plug-In . SVG Version: 6.00 Build 0)  -->
<svg version="1.1" id="Calque_1" xmlns="http://www.w3.org/2000/svg" xmlns:xlink="http://www.w3.org/1999/xlink" x="0px" y="0px"
	 viewBox="0 0 104 103.5" style="enable-background:new 0 0 104 103.5;" xml:space="preserve">
<style type="text/css">
	.st0{fill:#F1F1F1;}
	.st1{fill:none;}
	.st2{fill:#F2AF81;}
	.st3{fill:#FFB886;}
	.st4{fill:#582D11;}
	.st5{fill:#F6F4F9;}
	.st6{fill:#13323D;}
	.st7{fill:#382E27;}
	.st8{fill:#E6511C;}
	.st9{fill:#DD4E22;}
	.st10{fill:#1C140A;}
</style>
<circle id="XMLID_75_" class="st0" cx="52" cy="51.8" r="51.4"/>
<g id="XMLID_18_">
	<polygon id="XMLID_74_" class="st1" points="67.6,39.4 67.6,39.4 67.6,39.4 	"/>
	<path id="XMLID_73_" class="st1" d="M38.5,41.2C38.5,41.1,38.5,41.1,38.5,41.2C38.5,41.1,38.5,41.2,38.5,41.2z"/>
	<path id="XMLID_72_" class="st1" d="M65.8,41C65.8,41.2,65.8,41.2,65.8,41c0.2-0.2,0.5-0.7,0.8-1.1C66.3,40.3,66,40.6,65.8,41z"/>
	<path id="XMLID_71_" class="st2" d="M51.9,72.8c6.3,0,10.9-3.5,12.4-6.8c-2.9-2.6-3.6-5.8-3.7-8.1c-2,1.7-3.3,2.6-5.3,3
		c-1.3,0.5-2.6,0.7-3.2,0.7c-0.6,0-1.9-0.2-3.2-0.7c-2.1-0.4-3.5-1.6-6-3.7c0,2.4-0.5,6-3.8,8.8C40.6,69.4,45.6,72.8,51.9,72.8z"/>
	<path id="XMLID_69_" class="st3" d="M45.8,56.4c0.2-4.4,4.2-5.2,6.4-5.2c2.2,0,6.3,0.8,6.4,5.2c0.1,2.5-1.5,3.8-3.2,4.5
		c1.9-0.4,3.2-1.3,5.3-3c0.3-0.3,0.6-0.5,0.9-0.8c3.9-3.3,1.9-10.1,4.3-9.7c2.3,0.4,5-6.1,3.2-7.5c-0.5-0.3-0.8-0.5-1.2-0.5
		c-0.1,0-0.1,0-0.2,0h0c-0.4,0.1-0.7,0.3-1,0.5c-0.3,0.4-0.6,0.9-0.7,1.2c0,0.1-0.1,0.1-0.1-0.1c-0.4,0.8-0.7,1.5-1,1.5
		c-0.6,0-1.4-6.7-2.2-6.5c-0.5,0.1-0.3,1.1-1.7,0.7c-1.4-0.4-4.8-3.9-4.8-3.1c0,0.9,2.1,2.9-1.5,1.8c-3.5-1.2-6.8-5.5-6.8-3.2
		c0,2.2-1.5-2.2-1.6,0c-0.1,2.8-6.9,6.1-6.6,8.2c0.3,2.1,0.4,2.9-1.1,0.7c0,0,0,0,0-0.1c-1.5-2.3-2.1-1.1-2.6-1.5
		c-0.2,0.1-0.3,0.2-0.5,0.3c-1.8,1.4,0.8,7.9,3.2,7.5c2.3-0.4,0.4,6.4,4.3,9.7c0.1,0,0.1,0.1,0.2,0.1c2.5,2.1,3.9,3.3,6,3.7
		C47.3,60.2,45.7,58.9,45.8,56.4z"/>
	<path id="XMLID_68_" class="st4" d="M38.5,41.1C38.5,41.1,38.5,41.1,38.5,41.1c1.5,2.3,1.4,1.4,1.1-0.7c-0.3-2.1,6.6-5.4,6.6-8.2
		c0.1-2.2,1.6,2.2,1.6,0c0-2.2,3.3,2.1,6.8,3.2c3.5,1.2,1.5-0.9,1.5-1.8c0-0.9,3.5,2.7,4.8,3.1c1.4,0.4,1.2-0.6,1.7-0.7
		c0.8-0.2,1.6,6.5,2.2,6.5c0.3,0,0.6-0.7,1-1.5c0.2-0.4,0.5-0.8,0.8-1.1c0.3-0.3,0.6-0.5,1-0.5h0l0,0c0.1,0,0.2,0,0.2,0
		c0.8-0.2,1.1-2.2,0.8-4.2c-0.3-2.2-4.6-1.2-4.8-2.1c-0.3-0.9,3.2-4.5-1.8-8c-1.7-1.3-0.3-1.7-0.8-2.3c-0.5-0.6,1.3-3.6-2-4.5
		c-2.7-0.7-6.6-1.5-12.1-0.3c-2.6,0.6-5.7,3-5.7,3.6c0,0.6,1.3-0.1,0,0.6c-1.3,0.7-1-0.4-1.8,0.7c-0.6,0.8,1.2,1-0.6,3.5
		c-1.8,2.6-5.2,10.3-3.1,13.2c0,0,0,0,0,0C36.4,40,36.9,38.8,38.5,41.1z"/>
	<path id="XMLID_67_" class="st5" d="M23.2,84.4h57.5c0,0.2-0.1,0.5-0.1,0.7l8.4-3.8c-0.3-0.8-0.5-1.5-0.8-2.2l-7.1,3.2
		c0-0.1,0-0.2,0.1-0.3H22.8c0,0,0,0.1,0,0.1l-6.7-3c-0.3,0.7-0.5,1.4-0.8,2.2l8.1,3.7C23.3,84.8,23.3,84.6,23.2,84.4z"/>
	<path id="XMLID_66_" class="st5" d="M22,78.6h59.9c0,0.2-0.1,0.4-0.1,0.6l5.4-2.4c-0.4-0.8-0.7-1.5-1.1-2.1l-3.8,1.7
		c0,0,0-0.1,0-0.1H56.9c3.3-0.7,5.7-2,7.6-3.5H83c0.1-0.3,0.1-0.5,0.1-0.6c0,0-0.1-0.1-0.1-0.2c-0.4-0.3-1.7-0.9-3.4-1.6H66.8
		c1-1.2,1.6-2.5,2-3.5l-1.2-0.3l-3.2-0.8c0,0.1-0.1,0.2-0.1,0.2c-1.4,3.3-6,6.8-12.4,6.8c-6.4,0-11.3-3.5-12.7-6.8
		c0-0.1-0.1-0.1-0.1-0.2l-2.7,0.7l-1.6,0.4c0.4,1,1,2.2,2,3.4H24.4c-1.9,0.7-3.3,1.3-3.5,1.6c0,0,0,0.1,0,0.1c0,0.1,0,0.3,0.1,0.6
		h18.4c1.9,1.5,4.4,2.8,7.7,3.5H21.5c0,0,0,0,0-0.1l-3.3-1.5c-0.4,0.6-0.7,1.3-1.1,2.1l5,2.2C22.1,78.8,22.1,78.7,22,78.6z"/>
	<path id="XMLID_65_" class="st5" d="M18.7,73.9c0.1-0.2,0.3-0.4,0.4-0.6C19,73.5,18.8,73.7,18.7,73.9z"/>
	<path id="XMLID_64_" class="st5" d="M16.9,77.3c0-0.1,0.1-0.2,0.1-0.3C17,77.1,16.9,77.2,16.9,77.3z"/>
	<path id="XMLID_63_" class="st5" d="M18.3,74.4c0.1-0.1,0.1-0.2,0.2-0.3C18.5,74.2,18.4,74.3,18.3,74.4z"/>
	<path id="XMLID_62_" class="st5" d="M20.4,72.1c0,0,0.1,0,0.1-0.1C20.5,72.1,20.5,72.1,20.4,72.1z"/>
	<path id="XMLID_61_" class="st5" d="M19.9,72.5c0,0,0.1-0.1,0.1-0.1C20,72.4,20,72.4,19.9,72.5z"/>
	<path id="XMLID_60_" class="st5" d="M19.3,73.1c0.1-0.1,0.1-0.2,0.2-0.2C19.5,72.9,19.4,73,19.3,73.1z"/>
	<path id="XMLID_59_" class="st6" d="M22.8,82.1h58.4c0,0.1,0,0.2-0.1,0.3l7.1-3.2l0,0c-0.3-0.7-0.5-1.3-0.8-1.9
		c0-0.1-0.1-0.2-0.1-0.3c0-0.1-0.1-0.2-0.1-0.3l0,0l-5.4,2.4c0-0.2,0.1-0.4,0.1-0.6H22c0,0.1,0.1,0.3,0.1,0.4l-5-2.2l0,0
		c0,0.1-0.1,0.2-0.1,0.3c0,0.1-0.1,0.2-0.1,0.3c-0.3,0.6-0.5,1.2-0.8,1.9l0,0L22.8,82.1C22.8,82.1,22.8,82.1,22.8,82.1z"/>
	<path id="XMLID_58_" class="st6" d="M24,87.9h56c0,0.1,0,0.2-0.1,0.3l9.9-4.5l0,0c-0.2-0.9-0.6-1.7-0.8-2.5l0,0l-8.4,3.8
		c0-0.2,0.1-0.5,0.1-0.7H23.2c0,0.2,0.1,0.4,0.1,0.6l-8.1-3.7l0,0c-0.3,0.8-0.6,1.6-0.8,2.5l0,0l9.6,4.3C24,88.1,24,88,24,87.9z"/>
	<path id="XMLID_57_" class="st5" d="M84.2,72.4c0,0,0.1,0.1,0.1,0.1C84.3,72.4,84.3,72.4,84.2,72.4z"/>
	<path id="XMLID_56_" class="st5" d="M83.7,72.1c0,0,0.1,0,0.1,0.1C83.8,72.1,83.8,72.1,83.7,72.1z"/>
	<path id="XMLID_55_" class="st5" d="M85.8,74.1c0.1,0.1,0.1,0.2,0.2,0.3C85.9,74.3,85.8,74.2,85.8,74.1z"/>
	<path id="XMLID_54_" class="st5" d="M85.2,73.3c0.1,0.2,0.3,0.4,0.4,0.6C85.4,73.7,85.3,73.5,85.2,73.3z"/>
	<path id="XMLID_53_" class="st5" d="M84.7,72.8c0.1,0.1,0.1,0.2,0.2,0.2C84.9,73,84.8,72.9,84.7,72.8z"/>
	<path id="XMLID_52_" class="st5" d="M79.9,88.3c0-0.1,0-0.2,0.1-0.3H24c0,0.1,0,0.1,0,0.2l-9.6-4.3c-0.2,0.7-0.5,1.5-0.7,2.3
		l10.8,4.9c0-0.2-0.1-0.4-0.1-0.7h55.1c-0.1,0.3-0.1,0.5-0.2,0.8l10.8-4.9c0.1-0.1,0.2-0.3,0.3-0.4c-0.2-0.7-0.4-1.4-0.6-2
		L79.9,88.3z"/>
	<path id="XMLID_51_" class="st5" d="M87.3,77c0,0.1,0.1,0.2,0.1,0.3C87.4,77.2,87.3,77.1,87.3,77z"/>
	<path id="XMLID_50_" class="st5" d="M83.3,71.9C83.3,71.9,83.3,71.9,83.3,71.9C83.3,71.9,83.2,71.9,83.3,71.9
		C83.2,71.9,83.2,71.9,83.3,71.9C83.3,71.9,83.3,71.9,83.3,71.9z"/>
	<path id="XMLID_49_" class="st6" d="M83.1,72.1c0,0.1,0,0.3-0.1,0.6H64.5c-1.8,1.5-4.3,2.8-7.6,3.5h25.5c0,0,0,0.1,0,0.1l3.8-1.7
		l0,0c0-0.1-0.1-0.1-0.1-0.2c-0.1-0.1-0.1-0.2-0.2-0.3c-0.1-0.1-0.1-0.2-0.2-0.3c-0.1-0.2-0.3-0.4-0.4-0.6c-0.1-0.1-0.1-0.2-0.2-0.2
		c-0.1-0.1-0.2-0.2-0.2-0.2c-0.1-0.1-0.3-0.2-0.4-0.3c0,0-0.1-0.1-0.1-0.1c-0.1-0.1-0.3-0.2-0.4-0.2c0,0-0.1,0-0.1-0.1
		c-0.2-0.1-0.3-0.1-0.5-0.2c0,0,0,0,0,0c0,0,0,0,0,0c-0.1,0-0.2,0-0.3,0C83.1,72,83.1,72,83.1,72.1z"/>
	<path id="XMLID_48_" class="st5" d="M33.3,99.7c2.5,1,5.1,1.8,7.8,2.3h21.8c2.7-0.6,5.3-1.4,7.8-2.3H33.3z"/>
	<path id="XMLID_47_" class="st5" d="M78.8,93.8H25.2c0,0.1,0,0.2,0,0.2l-6.1-2.7c2.2,1.8,4.5,3.4,6.9,4.9h51.9
		c2.3-1.4,4.5-2.9,6.6-4.6l-5.8,2.6C78.8,94.1,78.8,93.9,78.8,93.8z"/>
	<path id="XMLID_46_" class="st6" d="M41.1,102c3.5,0.8,7.2,1.2,10.9,1.2c3.7,0,7.4-0.4,10.9-1.2H41.1z"/>
	<path id="XMLID_45_" class="st6" d="M26.1,96.1c2.3,1.4,4.7,2.5,7.3,3.5h37.3c2.5-1,5-2.2,7.3-3.5H26.1z"/>
	<path id="XMLID_44_" class="st6" d="M66.8,70.3h12.7h0.1c-3.6-1.4-9.2-3.1-12-3.8l1.2,0.3C68.4,67.9,67.8,69.1,66.8,70.3z"/>
	<path id="XMLID_43_" class="st6" d="M36.9,70.3c-1-1.2-1.7-2.4-2-3.4l1.6-0.4c-2.8,0.6-8.4,2.4-12.2,3.8h0.1H36.9z"/>
	<path id="XMLID_42_" class="st6" d="M21.5,76.2H47c-3.3-0.7-5.8-2-7.7-3.5H20.9c-0.1-0.3-0.1-0.5-0.1-0.6c0,0,0-0.1,0-0.1
		c-0.1,0-0.2,0.1-0.3,0.1c0,0-0.1,0-0.1,0.1c-0.1,0.1-0.3,0.1-0.4,0.2c0,0-0.1,0.1-0.1,0.1c-0.1,0.1-0.3,0.2-0.4,0.3
		c-0.1,0.1-0.2,0.2-0.2,0.2c-0.1,0.1-0.1,0.1-0.2,0.2c-0.1,0.2-0.3,0.4-0.4,0.6c-0.1,0.1-0.1,0.2-0.2,0.3c-0.1,0.1-0.1,0.2-0.2,0.3
		c0,0.1-0.1,0.1-0.1,0.2l0,0L21.5,76.2C21.5,76.2,21.5,76.2,21.5,76.2z"/>
	<path id="XMLID_23_" class="st6" d="M79.5,90.3H24.4c0,0.2,0.1,0.4,0.1,0.7L13.7,86l0,0c0,0,0,0,0,0c1.7,1.9,3.5,3.6,5.4,5.2
		l6.1,2.7c0-0.1,0-0.2,0-0.2h53.6c0,0.1-0.1,0.3-0.1,0.4l5.8-2.6c2-1.6,3.9-3.4,5.6-5.4l-10.8,4.9C79.4,90.8,79.5,90.6,79.5,90.3z"
		/>
</g>
<path class="st7" d="M38.8,33.8c0,0-0.7-11.4,2-10.8c0,0-0.2-2.5,1.9-3.7c2.1-1.2,3.4-2.9,3.4-2.9s0.2,1.4-1.2,2.3
	c0,0,1.8-0.8,3.1-2.6c0,0-0.3,1.5-1.3,2.3c0,0,2.3-2.1,5.3-2.5c0,0-1.4,0.3-2.4,1.8c0,0,3.1-1,3.7-2c0,0-0.6,1.6-2,2
	c0,0,2.9-1.1,5.4-1.3c0,0-1.7,0.5-2.7,1.2c0,0,2.7-0.9,3.7-1.2c0,0,4.5,2,6.6,6.9c2,4.9,1.4,10.8,1.4,10.8s-0.9,0.2-1.7,0.9
	c0,0-1-2.1-1-2.9c-0.1-1.2-0.9-4.5-1.6-5.6c-0.7-1.1-2.4-2.9-4.1-2.5c-1.7,0.4-4.6,0.6-7.1,0.3c-2.5-0.3-4.8,0-5.4,1
	c0,0-1.9,5.4-2.5,6.3c-0.5,0.9-0.8,2-1.2,3.4C40.9,34.7,39.6,33.4,38.8,33.8z"/>
<g>
	<path class="st8" d="M37.4,26.7c0,0,0-0.1,0-0.2c0.6-2.7,1.7-4.8,3.1-6.3c0-0.1,0.1-0.1,0.1-0.2c1.9-2.4,2.5-2.7,3.3-4.1
		c0.8-1.5,0.2-3.1,2.5-3c1.2,0.1,3.6,1,5.7,0.9c2.3-0.1,4-0.8,4.8-0.4c1.3,0.7-0.4,1.6,3.3,4.1c0.8,0.5,1.5,1.3,2.2,2.2
		c2.3,2.6,3.6,6.8,3.6,6.8c2.9,5.5,3.4,13,1.6,14c-0.6,0.3-1.8-3.5-5.1-6.2c-0.9-0.7-3.6-3-10.7-3c-7.1,0-9.8,2.2-10.7,3
		c-3.3,2.7-4.5,6.5-5.1,6.2C34.1,39.6,34.5,32.2,37.4,26.7z"/>
</g>
<g>
	<g>
		<path class="st9" d="M37.4,26.5c0.4-1.5,0.9-2.9,1.5-4.1c0.1-0.1,0.2-0.2,0.4-0.3c4.3-3.4,10.2-3.6,11.9-3.6c0.3,0,0.4,0,0.5,0
			c0.1,0,0.3,0,0.5,0c1.7,0,7.5,0.3,11.7,3.4c1.3,2.2,2,4.6,2,4.6c0.1,0.2,0.2,0.4,0.3,0.6c-0.7-1.4-1.7-2.8-3-3.8
			c-3.9-3-9.4-3.3-11-3.3c-0.3,0-0.5,0-0.5,0h0h0c0,0-0.2,0-0.5,0c-1.6,0-7.1,0.2-11,3.3c-1.3,1-2.3,2.4-3.1,3.8
			c0.1-0.2,0.2-0.4,0.2-0.5C37.4,26.6,37.4,26.6,37.4,26.5z"/>
	</g>
</g>
<g>
	<path class="st9" d="M42.4,18c0.6-0.7,1-1.2,1.5-2c1.8-0.4,4.4-0.7,7.8-0.7c2.7,0,4.8,0.2,6.4,0.4c0.4,0.5,1,1.1,2.1,1.8
		c0.2,0.1,0.4,0.3,0.7,0.5c-1.3-0.6-3.9-1.2-9.1-1.2C46.8,16.9,44,17.4,42.4,18z"/>
</g>
<ellipse class="st3" cx="52.2" cy="55.4" rx="7.7" ry="6.2"/>
<g>
	<path class="st4" d="M41.5,52c1.9,4.9,7.9,1,10.7,1c2.3,0,8.8,3.9,10.7-1c0,0,1.8-4.5,2-4.1c-0.3,0.7-0.3,1.2-0.4,1.5
		c0,0-0.3,1.9-0.5,3c-0.1,0.5-0.4,1.3-0.4,1.6c-0.3,1.8-0.9,2.4-1.4,3.1c-1.7,1.8-4,3.8-4.8,4.6c-1.1,1.1-3.6,1.1-4.2,1.1
		c-0.6,0-0.9,0-0.9,0s-0.3,0-0.9,0c-0.6,0-3.1,0-4.2-1.1c-0.8-0.8-3.1-2.8-4.8-4.6c-0.5-0.7-1.1-1.3-1.4-3.1c0-0.3-0.4-1.2-0.5-1.7
		c-0.2-1.2-0.3-2.1-0.3-2.1c0-0.3-0.1-1.3-0.7-2.6C39.4,47.2,41.5,52,41.5,52z M49.4,57.8c0.3,0.1,0.9,0.2,1.6,0.2
		c0.2,0,0.5-0.1,0.6-0.2c0.5-0.4,0.6-0.3,0.6-0.3s0.1-0.1,0.6,0.3c0.1,0.1,0.4,0.2,0.6,0.2c0.7,0,1.2-0.1,1.6-0.2
		c1.4-0.5,0.8-1.6,0.8-1.6c-0.9-1.1-3.6-1.2-3.6-1.2s-2.7,0.1-3.6,1.2C48.6,56.2,48,57.3,49.4,57.8z"/>
</g>
<g>
	<path class="st10" d="M46.2,46.9c2.9,0,4.1-3.7,4.2-4.9c0-0.8-0.4-1.5-1.2-1.9c-0.7-0.4-1.7-0.6-2.9-0.6c-2.1,0-4.5,0.3-4.9,2.3
		c-0.2,1,0.8,3,1.8,4.1C44,46.7,45.2,46.9,46.2,46.9z M46.3,40.3c1.1,0,2,0.2,2.5,0.5c0.5,0.3,0.8,0.7,0.8,1.2
		c0,1.1-1.1,4.1-3.3,4.1c-1,0-1.8-0.1-2.4-0.8c-1-1.1-1.7-2.7-1.6-3.4C42.4,40.8,43.6,40.3,46.3,40.3z"/>
</g>
<g>
	<path class="st10" d="M41.9,43.4c0.2,0,0.3-0.1,0.4-0.3c0.1-0.2,0-0.5-0.2-0.5l-2.3-0.9c-0.2-0.1-0.5,0-0.5,0.2
		c-0.1,0.2,0,0.5,0.2,0.5l2.3,0.9C41.8,43.4,41.9,43.4,41.9,43.4z"/>
</g>
<g>
	<path class="st10" d="M57.7,46.9c1.1,0,2.2-0.1,3.1-1c1-1.1,2-3,1.8-4.1c-0.3-2.1-2.8-2.3-4.9-2.3c-1.6,0-2.8,0.4-3.5,1
		c-0.4,0.4-0.6,0.9-0.6,1.5C53.6,43.1,54.8,46.9,57.7,46.9z M57.7,40.3c2.6,0,3.9,0.5,4,1.6c0.1,0.6-0.6,2.3-1.6,3.4
		c-0.6,0.6-1.4,0.8-2.4,0.8c-2.2,0-3.3-3-3.3-4.1c0-0.3,0.1-0.6,0.4-0.9C55.3,40.6,56.3,40.3,57.7,40.3z"/>
</g>
<g>
	<path class="st10" d="M62,43.4c0,0,0.1,0,0.1,0l2.4-0.9c0.2-0.1,0.3-0.3,0.2-0.5c-0.1-0.2-0.3-0.3-0.5-0.2l-2.4,0.9
		c-0.2,0.1-0.3,0.3-0.2,0.5C61.7,43.3,61.8,43.4,62,43.4z"/>
</g>
<g>
	<path class="st10" d="M53.9,43.8c0.2,0,0.4-0.1,0.5-0.3c0.1-0.3-0.1-0.5-0.3-0.6c-1.3-0.4-2.8-0.4-4.1,0c-0.3,0.1-0.4,0.3-0.3,0.6
		c0.1,0.3,0.4,0.4,0.7,0.3c1.1-0.3,2.3-0.3,3.4,0C53.8,43.8,53.8,43.8,53.9,43.8z"/>
</g>
</svg>
