<?xml version="1.0" encoding="utf-8"?>
<!-- Generator: Adobe Illustrator 22.1.0, SVG Export Plug-In . SVG Version: 6.00 Build 0)  -->
<svg version="1.1" id="Calque_1" xmlns="http://www.w3.org/2000/svg" xmlns:xlink="http://www.w3.org/1999/xlink" x="0px" y="0px"
	 viewBox="0 0 4000 2897.8" style="enable-background:new 0 0 4000 2897.8;" xml:space="preserve">
<style type="text/css">
	.st0{fill:#525252;}
</style>
<g>
	<g>
		<path class="st0" d="M314.6,2897.6c-24.2,0-48.5-2.9-72.2-8.6l-6-1.5c-140.3-39.2-236.9-167.7-236-313.2
			C-21.5,1536,804.4,669.8,1842.9,642.7l4.3-0.1h295.3V324.2c-1.1-119.4,64.4-230.2,170.7-287.7c110.6-58.3,243.5-45.8,340,31.1
			L3876.4,1031c70.2,57,112.8,135.8,121.8,223.3c9.1,87.5-16.5,173.3-72,241.6c-14.4,17.6-30.4,33.7-47.7,47.8l-1226,965.6
			c-95.9,76.6-229.1,89.1-338.5,31.1c-107.4-58.5-172.5-169.2-171.5-289.6v-317H1722c-464.7,3.4-890.2,279.7-1082.9,703.8l-1.8,3.8
			l-36.7,75.7c-49.2,106.7-159.9,178.8-280.6,180.7C318.1,2897.6,316.4,2897.6,314.6,2897.6z M304.7,2576.4
			c-0.1,0.1-0.1,0.2-0.2,0.4L304.7,2576.4z M1849.3,970.1c-845.1,23.2-1519.4,718.3-1521.8,1559.3l14.2-29.3
			c245.7-538.7,786.8-889.5,1379-893.8h749.2v629.9l1203.8-948.1L2467.4,338.2l2.5,631.9H1849.3z M2449.1,2252.5
			c-0.1,0-0.1,0.1-0.2,0.1L2449.1,2252.5z M2449.8,324.3l0.1,0.1L2449.8,324.3z"/>
	</g>
</g>
</svg>
