<?xml version="1.0" encoding="utf-8"?>
<!-- Generator: Adobe Illustrator 22.1.0, SVG Export Plug-In . SVG Version: 6.00 Build 0)  -->
<svg version="1.1" id="Calque_1" xmlns="http://www.w3.org/2000/svg" xmlns:xlink="http://www.w3.org/1999/xlink" x="0px" y="0px"
	 viewBox="0 0 4000 2897.8" style="enable-background:new 0 0 4000 2897.8;" xml:space="preserve">
<style type="text/css">
	.st0{fill:#525252;}
</style>
<g>
	<g>
		<path class="st0" d="M3680.1,2897.8c-120.7-1.9-231.4-73.9-280.6-180.7l-36.7-75.7l-1.8-3.8
			c-192.7-424.1-618.3-700.4-1082.9-703.8h-420.5v317c1,120.5-64.1,231.1-171.5,289.6c-109.4,58-242.6,45.5-338.5-31.1l-1226-965.6
			c-17.3-14.1-33.4-30.2-47.7-47.8c-55.5-68.3-81.1-154.1-72-241.6S53.5,1088,123.7,1031L1346.9,67.6c96.5-76.9,229.4-89.4,340-31.1
			c106.4,57.5,171.8,168.2,170.7,287.7v318.4h295.3l4.3,0.1c1038.5,27.1,1864.4,893.4,1842.4,1931.6c1,145.5-95.6,274-236.1,313.3
			l-6,1.5c-23.7,5.7-48,8.6-72.2,8.6C3683.6,2897.8,3681.9,2897.8,3680.1,2897.8z M3695.5,2577c-0.1-0.1-0.1-0.2-0.2-0.4
			L3695.5,2577z M1530.1,970.3l2.5-631.9L326.3,1288.2l1203.8,948.1v-629.9h749.2c592.2,4.3,1133.3,355.1,1379,893.8l14.2,29.3
			c-2.4-840.9-676.7-1536.1-1521.8-1559.3h-620.6V970.3z M1551.1,2252.9c-0.1-0.1-0.1-0.1-0.2-0.1L1551.1,2252.9z M1550.1,324.6
			L1550.1,324.6L1550.1,324.6z"/>
	</g>
</g>
</svg>
