<?xml version="1.0" encoding="utf-8"?>
<!-- Generator: Adobe Illustrator 22.1.0, SVG Export Plug-In . SVG Version: 6.00 Build 0)  -->
<svg version="1.1" id="Calque_1" xmlns="http://www.w3.org/2000/svg" xmlns:xlink="http://www.w3.org/1999/xlink" x="0px" y="0px"
	 viewBox="0 0 23 15" style="enable-background:new 0 0 23 15;" xml:space="preserve">
<style type="text/css">
	.st0{fill:#525252;}
</style>
<g>
	<g>
		<path class="st0" d="M17.8,5.7C17.7,2.6,15,0,11.8,0c-1.5,0-2.9,0.5-4,1.5C6.8,2.3,6.2,3.4,5.9,4.6c-2.8,0.1-5,2.4-5,5.2
			C0.9,12.6,3.2,15,6,15h11.5c2.5,0,4.6-2.1,4.6-4.6C22.1,7.9,20.2,5.9,17.8,5.7z M17.5,13.8H6c-2.2,0-4-1.8-4-4s1.8-4,4-4
			c0.1,0,0.2,0,0.4,0c0.2,0,0.4-0.1,0.5-0.4c0.2-1.2,0.7-2.2,1.6-3c0.9-0.8,2.1-1.2,3.2-1.2c2.7,0,4.9,2.2,4.9,4.9
			c0,0.1,0,0.2,0,0.3l0,0c0,0.1,0,0.3,0.1,0.3c0.1,0.1,0.2,0.1,0.4,0.1c0.1,0,0.2,0,0.4,0c1.9,0,3.5,1.6,3.5,3.5
			S19.4,13.8,17.5,13.8z"/>
	</g>
	<g>
		<path class="st0" d="M12.3,2.6c-1.9,0-3.4,1.4-3.7,3.2C8.6,6,8.8,6.3,9,6.3c0,0,0,0,0.1,0c0.2,0,0.4-0.2,0.4-0.4
			c0.2-1.4,1.4-2.5,2.8-2.5c0.2,0,0.4-0.2,0.4-0.4C12.8,2.8,12.6,2.6,12.3,2.6z"/>
	</g>
</g>
</svg>
