<?xml version="1.0" encoding="utf-8"?>
<!-- Generator: Adobe Illustrator 22.1.0, SVG Export Plug-In . SVG Version: 6.00 Build 0)  -->
<svg version="1.1" id="Calque_1" xmlns="http://www.w3.org/2000/svg" xmlns:xlink="http://www.w3.org/1999/xlink" x="0px" y="0px"
	 viewBox="0 0 4000 2816.4" style="enable-background:new 0 0 4000 2816.4;" xml:space="preserve">
<style type="text/css">
	.st0{fill:#525252;}
</style>
<g>
	<path class="st0" d="M3751.8,1342.9c-74.7-79.5-162.1-143.7-259.8-190.8c-96.1-46.4-198.5-74.3-304.5-83.2
		c-9.3-141.9-44.8-279.1-105.5-408.1c-60.9-129.3-144.6-245.2-248.8-344.4c-104.4-99.4-224.5-177.3-356.8-231.6
		C2339.3,28.5,2194.5,0,2046,0c-278.3,0-546.3,101.2-754.9,285c-87,76.7-161.9,166.4-222.6,266.8
		c-58.3,96.4-101.9,199.8-129.6,307.7c-124.4,5-244.8,33.2-358.2,83.8c-113.5,50.7-215.3,121.8-302.5,211.3
		c-87.3,89.6-155.9,193.2-203.7,308.1C25.1,1581.8,0,1707.9,0,1837.6c0,539.7,439.1,978.8,978.8,978.8h2136.1
		c482.6,0,875.2-392.6,875.2-875.2C3990.1,1718.9,3905.5,1506.4,3751.8,1342.9z M2971.5,1286.7c21.1,20.5,50.1,30.6,79.4,27.7
		c21.3-2.1,42.8-3.2,64-3.2c347.4,0,630,282.6,630,630s-282.6,630-630,630H978.8c-404.5,0-733.6-329.1-733.6-733.6
		S574.3,1104,978.8,1104c21.6,0,44.4,1.2,69.6,3.5c25.7,2.5,51.1-5,71.4-21.1s33.4-39.1,36.8-64.7
		c29.1-213.4,134.5-409.6,296.7-552.6C1617,324.8,1827.5,245.4,2046,245.4c495.6,0,898.8,403.2,898.8,898.8c0,17.5-1.3,36-2.7,55.5
		l-0.6,8.5C2939.4,1237.5,2950.3,1266.2,2971.5,1286.7z"/>
	<path class="st0" d="M2146.3,477.8c-353.2,0-655.5,263.9-703.3,613.9c-7.4,54.5,30.8,104.9,85.3,112.3c4.5,0.6,9.1,0.9,13.6,0.9
		c49.6,0,92-37.1,98.7-86.3c34.3-251.7,251.7-441.5,505.6-441.5c55,0,99.7-44.7,99.7-99.7c0-26.6-10.4-51.7-29.2-70.5
		S2172.9,477.8,2146.3,477.8z"/>
</g>
</svg>
