<?xml version="1.0" encoding="utf-8"?>
<!-- Generator: Adobe Illustrator 22.1.0, SVG Export Plug-In . SVG Version: 6.00 Build 0)  -->
<svg version="1.1" id="Calque_1" xmlns="http://www.w3.org/2000/svg" xmlns:xlink="http://www.w3.org/1999/xlink" x="0px" y="0px"
	 viewBox="0 0 4000 4000" style="enable-background:new 0 0 4000 4000;" xml:space="preserve">
<style type="text/css">
	.st0{fill:#525252;}
</style>
<g>
	<g>
		<path class="st0" d="M2871.6,2007.1c-76.9-36.5-155.3-68-235.1-94.4c258.5-194,426-502.9,426-850.2C3062.5,476.6,2585.9,0,2000,0
			S937.5,476.6,937.5,1062.5c0,347.7,167.9,656.9,426.8,850.9c-237.2,78.1-459.9,199.6-654.7,359.9
			c-357.3,293.9-605.7,703.8-699.5,1154.2c-29.4,141.1,5.8,286.1,96.6,397.7C197,3936.3,331,4000,474.2,4000h1924.3
			c86.3,0,156.2-70,156.2-156.2s-70-156.2-156.2-156.2H474.2c-66.7,0-106.9-37.2-125-59.4c-31.2-38.3-43.2-88.2-33.1-136.9
			c162.1-778.9,849.1-1347.8,1642.5-1367c13.7,0.5,27.5,0.8,41.4,0.8c14,0,28-0.3,41.8-0.8c243.1,5.7,477,61.2,695.7,165.2
			c77.9,37,171.1,3.9,208.2-74C2982.7,2137.4,2949.6,2044.1,2871.6,2007.1z M2038.1,1811.5c-12.7-0.2-25.4-0.3-38.1-0.3
			c-12.6,0-25.2,0.1-37.8,0.4c-396.1-19.8-712.2-348.2-712.2-749.1c0-413.6,336.4-750,750-750s750,336.4,750,750
			C2750,1463.3,2434,1791.6,2038.1,1811.5z"/>
	</g>
</g>
<g>
	<g>
		<path class="st0" d="M3843.7,3101.6h-429.7v-429.7c0-86.3-70-156.2-156.2-156.2s-156.2,70-156.2,156.2v429.7h-429.7
			c-86.3,0-156.2,70-156.2,156.2s70,156.2,156.2,156.2h429.7v429.7c0,86.3,70,156.2,156.2,156.2s156.2-70,156.2-156.2v-429.7h429.7
			c86.3,0,156.2-70,156.2-156.2S3930,3101.6,3843.7,3101.6z"/>
	</g>
</g>
</svg>
