<?xml version="1.0" encoding="utf-8"?>
<!-- Generator: Adobe Illustrator 22.1.0, SVG Export Plug-In . SVG Version: 6.00 Build 0)  -->
<svg version="1.1" id="Calque_1" xmlns="http://www.w3.org/2000/svg" xmlns:xlink="http://www.w3.org/1999/xlink" x="0px" y="0px"
	 viewBox="0 0 19 24" style="enable-background:new 0 0 19 24;" xml:space="preserve">
<style type="text/css">
	.st0{fill:#525252;}
</style>
<g>
	<g>
		<path class="st0" d="M13.7,11.5c-0.4-0.2-0.7-0.3-1.1-0.4c1.2-0.9,2-2.4,2-4c0-2.8-2.3-5-5-5s-5,2.3-5,5c0,1.6,0.8,3.1,2,4
			c-1.1,0.4-2.2,0.9-3.1,1.7c-1.7,1.4-2.9,3.3-3.3,5.5c-0.1,0.7,0,1.4,0.5,1.9C1,20.7,1.6,21,2.3,21h9.1c0.4,0,0.7-0.3,0.7-0.7
			c0-0.4-0.3-0.7-0.7-0.7H2.3c-0.3,0-0.5-0.2-0.6-0.3c-0.1-0.2-0.2-0.4-0.2-0.6c0.8-3.7,4-6.4,7.8-6.5c0.1,0,0.1,0,0.2,0
			c0.1,0,0.1,0,0.2,0c1.2,0,2.3,0.3,3.3,0.8c0.4,0.2,0.8,0,1-0.4C14.2,12.1,14,11.7,13.7,11.5z M9.7,10.6c-0.1,0-0.1,0-0.2,0
			c-0.1,0-0.1,0-0.2,0C7.5,10.5,6,8.9,6,7c0-2,1.6-3.6,3.6-3.6s3.6,1.6,3.6,3.6C13.1,8.9,11.6,10.5,9.7,10.6z"/>
	</g>
</g>
<g>
	<g>
		<path class="st0" d="M18.3,16.7h-2v-2c0-0.4-0.3-0.7-0.7-0.7c-0.4,0-0.7,0.3-0.7,0.7v2h-2c-0.4,0-0.7,0.3-0.7,0.7
			c0,0.4,0.3,0.7,0.7,0.7h2v2c0,0.4,0.3,0.7,0.7,0.7c0.4,0,0.7-0.3,0.7-0.7v-2h2c0.4,0,0.7-0.3,0.7-0.7C19,17,18.7,16.7,18.3,16.7z"
			/>
	</g>
</g>
</svg>
