<?xml version="1.0" encoding="utf-8"?>
<!-- Generator: Adobe Illustrator 22.1.0, SVG Export Plug-In . SVG Version: 6.00 Build 0)  -->
<svg version="1.1" id="Calque_1" xmlns="http://www.w3.org/2000/svg" xmlns:xlink="http://www.w3.org/1999/xlink" x="0px" y="0px"
	 viewBox="0 0 2968.6 4000" style="enable-background:new 0 0 2968.6 4000;" xml:space="preserve">
<style type="text/css">
	.st0{fill:#525252;}
</style>
<g>
	<g>
		<path class="st0" d="M2665.1,195.2"/>
	</g>
</g>
<g>
	<path class="st0" d="M2817.3,4000H673.7c-83.6,0-151.3-67.7-151.3-151.3v-3175c0-83.6,67.7-151.3,151.3-151.3h2143.6
		c83.6,0,151.3,67.7,151.3,151.3v3175C2968.6,3932.3,2900.9,4000,2817.3,4000z M825,3697.4h1841V825H825V3697.4z"/>
</g>
<g>
	<path class="st0" d="M151.3,3477.6C67.7,3477.6,0,3409.9,0,3326.3v-3175C0.1,67.7,67.8,0,151.3,0h2143.6
		c83.6,0,151.3,67.7,151.3,151.3s-67.7,151.3-151.3,151.3H302.6v3023.7C302.6,3409.9,234.9,3477.6,151.3,3477.6z"/>
</g>
</svg>
