<svg id="Calque_1" data-name="Calque 1" xmlns="http://www.w3.org/2000/svg" viewBox="0 0 4000 3986.8"><title>filter</title><path d="M3766.7,1751H3524.3l-20.3-42.2c-106-220.5-332-363-575.9-363s-469.9,142.5-575.9,363l-20.4,42.2H233.4C104.7,1751,0,1855.7,0,1984.4s104.7,233.3,233.4,233.3H2331.8l20.4,42.3c106,220.4,332,362.9,575.9,362.9S3398,2480.4,3504,2260l20.3-42.3h242.4c128.6,0,233.3-104.7,233.3-233.3S3895.3,1751,3766.7,1751Zm-836.2,624.2c-211.8,0-384.1-172.3-384.1-384.2s172.3-384.1,384.1-384.1,384.2,172.3,384.2,384.1S3142.3,2375.2,2930.5,2375.2Z" transform="translate(0 2.4)" style="fill:#525252"/><path d="M3766.7,402.8H1668.2l-20.4-42.3C1541.9,140.1,1315.8-2.4,1071.9-2.4S602,140.1,496,360.5l-20.3,42.3H233.4C104.7,402.8,0,507.5,0,636.1S104.7,869.5,233.4,869.5H475.7L496,911.8c106,220.5,332,362.9,575.9,362.9s469.9-142.4,575.9-362.9l20.4-42.3H3766.7c128.6,0,233.3-104.7,233.3-233.4S3895.3,402.8,3766.7,402.8ZM1069.5,1026.9c-211.8,0-384.1-172.3-384.1-384.1s172.3-384.1,384.1-384.1S1453.6,431,1453.6,642.8,1281.3,1026.9,1069.5,1026.9Z" transform="translate(0 2.4)" style="fill:#525252"/><path d="M3766.7,3112.5H1668.2l-20.4-42.3c-106-220.4-332-362.9-575.9-362.9S602,2849.8,496,3070.2l-20.3,42.3H233.4C104.7,3112.5,0,3217.2,0,3345.9s104.7,233.3,233.4,233.3H475.7l20.3,42.3c106,220.5,332,362.9,575.9,362.9s469.9-142.4,575.9-362.9l20.4-42.3H3766.7c128.6,0,233.3-104.6,233.3-233.3S3895.3,3112.5,3766.7,3112.5ZM1069.5,3736.7c-211.8,0-384.1-172.4-384.1-384.2s172.3-384.1,384.1-384.1,384.1,172.3,384.1,384.1S1281.3,3736.7,1069.5,3736.7Z" transform="translate(0 2.4)" style="fill:#525252"/><path d="M3766.7,409.5H1668.2l-20.4-42.3c-106-220.5-332-362.9-575.9-362.9S602,146.7,496,367.2l-20.3,42.3H233.4C104.7,409.5,0,514.1,0,642.8S104.7,876.2,233.4,876.2H475.7L496,918.5c106,220.4,332,362.9,575.9,362.9s469.9-142.5,575.9-362.9l20.4-42.3H3766.7c128.6,0,233.3-104.7,233.3-233.4S3895.3,409.5,3766.7,409.5ZM1069.5,1033.6c-211.8,0-384.1-172.3-384.1-384.1s172.3-384.2,384.1-384.2,384.1,172.3,384.1,384.2S1281.3,1033.6,1069.5,1033.6Z" transform="translate(0 2.4)" style="fill:#525252"/></svg>