<?xml version="1.0" encoding="utf-8"?>
<!-- Generator: Adobe Illustrator 22.1.0, SVG Export Plug-In . SVG Version: 6.00 Build 0)  -->
<svg version="1.1" id="Calque_1" xmlns="http://www.w3.org/2000/svg" xmlns:xlink="http://www.w3.org/1999/xlink" x="0px" y="0px"
	 viewBox="0 0 4000 2825" style="enable-background:new 0 0 4000 2825;" xml:space="preserve">
<style type="text/css">
	.st0{fill:#525252;}
</style>
<g>
	<path class="st0" d="M2000,2814.8c-523.9,0-1018.4-140-1392.5-394.2C215.8,2154.3,0,1794.5,0,1407.4S215.8,660.5,607.5,394.2
		C981.5,140,1476,0,2000,0c523.9,0,1018.4,140,1392.4,394.2c391.8,266.3,607.6,626.1,607.6,1013.2s-215.8,746.9-607.5,1013.2
		C3018.4,2674.8,2523.9,2814.8,2000,2814.8z M2000,300.2c-937.3,0-1699.8,496.7-1699.8,1107.2S1062.7,2514.6,2000,2514.6
		s1699.8-496.7,1699.8-1107.2S2937.3,300.2,2000,300.2z"/>
</g>
<g>
	<path class="st0" d="M2899.1,806.8c20,47.9,31.1,100.5,31.1,155.6c0,223.6-181.3,404.9-404.9,404.9
		c-223.6,0-404.9-181.3-404.9-404.9s181.3-404.9,404.9-404.9c134.4,0,253.2,65.8,326.9,166.6C2663.4,419.9,2352.3,221,2000.1,221
		c-575.8,0-1042.7,531.1-1042.7,1186.3S1424.2,2593.7,2000,2593.7s1042.7-531.1,1042.7-1186.3
		C3042.7,1188.2,2990.2,983,2899.1,806.8z"/>
</g>
</svg>
