<?xml version="1.0" encoding="utf-8"?>
<!-- Generator: Adobe Illustrator 22.1.0, SVG Export Plug-In . SVG Version: 6.00 Build 0)  -->
<svg version="1.1" id="Calque_1" xmlns="http://www.w3.org/2000/svg" xmlns:xlink="http://www.w3.org/1999/xlink" x="0px" y="0px"
	 viewBox="0 0 4000 4000" style="enable-background:new 0 0 4000 4000;" xml:space="preserve">
<style type="text/css">
	.st0{fill:#525252;}
</style>
<path class="st0" d="M2902.9,1850.8L1531,1145.2c-105.1-54.1-230.2,22.3-230.2,140.5v705.6v705.6c0,118.2,125.1,194.6,230.2,140.5
	l1371.9-705.6C3017.2,2073,3017.2,1909.6,2902.9,1850.8z"/>
<g>
	<path class="st0" d="M2002.8,3988.5C901.5,3988.5,5.6,3092.6,5.6,1991.3S901.5-5.9,2002.8-5.9C3104.1-5.9,4000,890.1,4000,1991.3
		S3104.1,3988.5,2002.8,3988.5z M2002.8,347c-906.7,0-1644.4,737.7-1644.4,1644.4s737.7,1644.4,1644.4,1644.4
		S3647.2,2898,3647.2,1991.3S2909.5,347,2002.8,347z"/>
</g>
</svg>
