<?xml version="1.0" encoding="utf-8"?>
<!-- Generator: Adobe Illustrator 22.1.0, SVG Export Plug-In . SVG Version: 6.00 Build 0)  -->
<svg version="1.1" id="Capa_1" xmlns="http://www.w3.org/2000/svg" xmlns:xlink="http://www.w3.org/1999/xlink" x="0px" y="0px"
	 viewBox="0 0 535.5 535.5" style="enable-background:new 0 0 535.5 535.5;" xml:space="preserve">
<style type="text/css">
	.st0{fill:#525252;}
</style>
<g>
	<g id="extension">
		<g>
			<path class="st0" d="M374.9,535.5H266.7V482c0-12.5-4.8-24.3-13.6-33c-8.7-8.7-20.5-13.6-33-13.6c-12.5,0-24.3,4.8-33,13.6
				c-8.7,8.7-13.6,20.5-13.6,33v53.5H65.4c-36,0-65.4-29.3-65.4-65.4V361.9h53.5c12.5,0,24.3-4.8,33-13.6c8.7-8.7,13.6-20.5,13.6-33
				c0-12.5-4.8-24.3-13.6-33c-8.7-8.7-20.5-13.6-33-13.6H0V160.6c0-36,29.3-65.4,65.4-65.4h77.5v-18c0-20.9,8-40.3,22.5-54.8
				C179.8,8,199.3,0,220.1,0s40.3,8,54.8,22.5c14.5,14.5,22.5,33.9,22.5,54.8v18h77.5c36,0,65.4,29.3,65.4,65.4v77.5h18
				c20.9,0,40.3,8,54.8,22.5c14.5,14.5,22.5,33.9,22.5,54.8c0,20.9-8,40.3-22.5,54.8c-14.5,14.5-33.9,22.5-54.8,22.5h-18v77.5
				C440.3,506.2,410.9,535.5,374.9,535.5z M302.2,500h72.7c16.5,0,29.9-13.4,29.9-29.9v-113h53.5c23.4,0,41.8-18.4,41.8-41.8
				c0-23.4-18.4-41.8-41.8-41.8h-53.5v-113c0-16.5-13.4-29.9-29.9-29.9h-113V77.3c0-23.4-18.4-41.8-41.8-41.8s-41.8,18.4-41.8,41.8
				v53.5h-113c-16.5,0-29.9,13.4-29.9,29.9v72.7h18c22,0,42.6,8.5,58.1,23.9c15.4,15.4,23.9,36.1,23.9,58.1c0,22-8.5,42.6-23.9,58.1
				c-15.4,15.4-36.1,23.9-58.1,23.9h-18v72.7c0,16.5,13.4,29.9,29.9,29.9h72.7v-18c0-22,8.5-42.6,23.9-58.1
				c15.4-15.4,36.1-23.9,58.1-23.9s42.6,8.5,58.1,23.9c15.4,15.4,23.9,36.1,23.9,58.1V500z"/>
		</g>
	</g>
</g>
</svg>
