<?xml version="1.0" encoding="utf-8"?>
<!-- Generator: Adobe Illustrator 22.1.0, SVG Export Plug-In . SVG Version: 6.00 Build 0)  -->
<svg version="1.1" id="Calque_1" xmlns="http://www.w3.org/2000/svg" xmlns:xlink="http://www.w3.org/1999/xlink" x="0px" y="0px"
	 viewBox="0 0 3367.5 4000" style="enable-background:new 0 0 3367.5 4000;" xml:space="preserve">
<style type="text/css">
	.st0{fill:#525252;}
</style>
<g>
	<path class="st0" d="M940.3,1935.6c-325.5,0-590.2,264.8-590.2,590.2c0,44.6,36.1,80.7,80.7,80.7s80.7-36.1,80.7-80.7
		c0-236.4,192.4-428.8,428.8-428.8c44.6,0,80.7-36.1,80.7-80.7C1021.1,1971.7,984.9,1935.6,940.3,1935.6z"/>
	<path class="st0" d="M3286.9,0H737.2c-44.6,0-80.7,36.1-80.7,80.7v1548.4c-142.2,44.8-272.6,123.4-381.1,231.8
		C97.8,2038.5,0,2274.6,0,2525.8s97.8,487.3,275.4,664.9s413.7,275.4,664.9,275.4c137.2,0,269-28.7,392.1-85.4l522.7,523.1
		c61.4,61.4,143.1,95.2,230.1,95.2s168.8-33.8,230.3-95.3l2.9-2.9c61.5-61.5,95.3-143.2,95.3-230.1c0-86.9-33.9-168.7-95.3-230.1
		l-523-523c30.6-66.5,52.7-135.5,66.8-206.5h1424.6c44.6,0,80.7-36.1,80.7-80.7V80.7C3367.6,36.1,3331.5,0,3286.9,0z M1805.6,161.5
		h58.1v170c0,5.8,4.7,10.4,10.4,10.4h102.4c5.8,0,10.4-4.7,10.4-10.4v-170h58.1v224.8h-239.3L1805.6,161.5L1805.6,161.5z
		 M2183.5,3670.8c0,25.4-9.9,49.4-28,67.4l-3,3c-35.9,35.9-98.8,35.9-134.7,0L1532.9,3256c25.2-20.5,49.4-42.4,72.2-65.1
		c22.9-22.9,44.7-47.1,65.3-72.4l485.1,485.1C2173.6,3621.4,2183.5,3645.3,2183.5,3670.8z M1650.4,2525.8
		c0,189.7-73.9,368-208,502.1s-312.5,208-502.1,208c-189.7,0-368-73.9-502.1-208s-208-312.4-208-502.1s73.9-368,208-502.1
		s312.5-208,502.1-208c189.7,0,368,73.9,502.1,208S1650.4,2336.1,1650.4,2525.8z M1605.2,1860.9
		c-177.6-177.6-413.8-275.4-664.9-275.4c-41.3,0-82.1,2.9-122.4,8.1V161.5h126c-0.1,0.7-0.4,1.3-0.4,1.9v93.1
		c0,10.2,8.3,18.5,18.5,18.5h93.1c10.2,0,18.5-8.3,18.5-18.5v-93.1c0-0.7-0.3-1.3-0.4-1.9h526v327.9c0,57,46.2,103.1,103.1,103.1
		h445.6c57,0,103.1-46.2,103.1-103.1V161.5h955v2044.8h-351c-36,0-65.1,29.1-65.1,65.1v273c0,1.8,0.4,3.6,0.5,5.4h-75.5V2313
		c0-10.2-8.3-18.5-18.5-18.5h-92.9c-10.2,0-18.5,8.3-18.5,18.5v236.7h-704.9c0.2-8,0.6-15.9,0.6-23.9
		C1880.7,2274.7,1782.9,2038.5,1605.2,1860.9z"/>
	<path class="st0" d="M2025.6,1937.5v322.9c0,44.6,36.1,80.7,80.7,80.7h322.9c44.6,0,80.7-36.1,80.7-80.7v-242.2H3001
		c44.6,0,80.7-36.1,80.7-80.7v-694.7c0-44.6-36.1-80.7-80.7-80.7h-571.8c-44.6,0-80.7,36.1-80.7,80.7v614h-242.2
		C2061.7,1856.8,2025.6,1892.9,2025.6,1937.5z M2510,1323.5h410.3v533.2H2510V1323.5z"/>
	<path class="st0" d="M2429.2,1004.6H3001c44.6,0,80.7-36.1,80.7-80.7V444c0-44.6-36.1-80.7-80.7-80.7h-571.8
		c-44.6,0-80.7,36.1-80.7,80.7v479.9C2348.5,968.5,2384.7,1004.6,2429.2,1004.6z"/>
	<path class="st0" d="M1909.5,1004.1h-301.1c-14.1,0-25.6,11.5-25.6,25.6V1336c0,14.1,11.5,25.6,25.6,25.6h301.1
		c14.1,0,25.6-11.5,25.6-25.6v-306.4C1935.1,1015.5,1923.6,1004.1,1909.5,1004.1z"/>
	<path class="st0" d="M2813.5,1381.1h-196.7c-14.1,0-25.6,11.5-25.6,25.6v353.1c0,14.1,11.5,25.6,25.6,25.6h196.7
		c14.1,0,25.6-11.5,25.6-25.6v-353.1C2839.1,1392.6,2827.6,1381.1,2813.5,1381.1z"/>
	<path class="st0" d="M2702.8,2084.3h-93.1c-10.2,0-18.5,8.3-18.5,18.5v93.1c0,10.2,8.3,18.5,18.5,18.5h93.1
		c10.2,0,18.5-8.3,18.5-18.5v-93.1C2721.4,2092.6,2713.1,2084.3,2702.8,2084.3z"/>
	<path class="st0" d="M1068.6,1281.7h-93.1c-10.2,0-18.5,8.3-18.5,18.5v93.1c0,10.2,8.3,18.5,18.5,18.5h93.1
		c10.2,0,18.5-8.3,18.5-18.5v-93.1C1087.1,1290,1078.8,1281.7,1068.6,1281.7z"/>
	<path class="st0" d="M2100.6,1790.2V1697c0-10.2-8.3-18.5-18.5-18.5h-193v-67.6h217.2c44.6,0,80.7-36.1,80.7-80.7V835.5
		c0-44.6-36.1-80.7-80.7-80.7h-614V467.3c0-44.6-36.1-80.7-80.7-80.7h-368.2c-44.6,0-80.7,36.1-80.7,80.7v368.2
		c0,44.6,36.1,80.7,80.7,80.7h287.5v204.6h-188.3c-10.2,0-18.5,8.3-18.5,18.5v93.1c0,10.2,8.3,18.5,18.5,18.5h188.3V1530
		c0,44.6,36.1,80.7,80.7,80.7h347.3v179.2c0,10.2,8.3,18.5,18.5,18.5h10.6h82.5H2082C2092.3,1808.7,2100.6,1800.4,2100.6,1790.2z
		 M1492.3,916.2h533.2v533.2h-533.2V916.2z"/>
</g>
</svg>
