<?xml version="1.0" encoding="utf-8"?>
<!-- Generator: Adobe Illustrator 22.1.0, SVG Export Plug-In . SVG Version: 6.00 Build 0)  -->
<svg version="1.1" id="Calque_1" xmlns="http://www.w3.org/2000/svg" xmlns:xlink="http://www.w3.org/1999/xlink" x="0px" y="0px"
	 viewBox="0 0 4000 2834.4" style="enable-background:new 0 0 4000 2834.4;" xml:space="preserve">
<style type="text/css">
	.st0{fill:#525252;}
</style>
<g>
	<g>
		<path class="st0" d="M1605.1,1720.4c-43-20.4-86.8-38-131.4-52.8c144.5-108.4,238.1-281.1,238.1-475.2
			c0-327.5-266.4-593.9-593.9-593.9S524,864.9,524,1192.4c0,194.3,93.8,367.2,238.6,475.6c-132.6,43.7-257.1,111.6-366,201.2
			C196.9,2033.4,58.1,2262.6,5.7,2514.4c-16.4,78.9,3.3,159.9,54,222.3c50.5,62.1,125.3,97.7,205.4,97.7h1275.3
			c48.2,0,87.3-39.1,87.3-87.3c0-48.2-39.1-87.3-87.3-87.3H265c-37.3,0-59.8-20.8-69.9-33.2c-17.4-21.4-24.2-49.3-18.5-76.5
			c90.6-435.4,474.6-753.4,918.1-764.1c7.7,0.3,15.4,0.4,23.2,0.4c7.8,0,15.6-0.2,23.4-0.5c135.9,3.2,266.6,34.2,388.8,92.3
			c43.6,20.7,95.7,2.2,116.4-41.4S1648.7,1741.1,1605.1,1720.4z M1139.2,1611.1c-7.1-0.1-14.2-0.2-21.3-0.2c-7,0-14.1,0.1-21.1,0.2
			c-221.4-11-398.1-194.6-398.1-418.7c0-231.2,188.1-419.2,419.2-419.2s419.2,188.1,419.2,419.2
			C1537.2,1416.4,1360.5,1599.9,1139.2,1611.1z"/>
	</g>
</g>
<path class="st0" d="M3992.8,2428.7c-66.4-319.2-242.5-609.6-495.6-817.9c-138.1-113.6-295.8-199.7-463.9-255h-3.3
	c-0.4-0.1-0.8-0.3-1.3-0.5c183.1-137.5,301.8-356.4,301.8-602.4C3330.5,337.8,2992.8,0,2577.6,0c-415.1,0-752.9,337.7-752.9,752.9
	c0,246.4,119,465.5,302.4,602.9c-168.1,55.3-325.9,141.5-463.9,255C1410,1819,1234,2109.5,1167.6,2428.7
	c-20.8,100,4.1,202.7,68.4,281.8c64,78.7,158.9,123.8,260.4,123.8h804H2860h804c101.5,0,196.4-45.1,260.4-123.8
	C3988.7,2631.4,4013.6,2528.7,3992.8,2428.7z M2046.2,752.9c0-293,238.4-531.4,531.4-531.4S3109,459.9,3109,752.9
	c0,284-223.9,516.6-504.4,530.7c-9-0.2-18-0.2-27-0.2c-8.9,0-17.9,0.1-26.8,0.3C2270.2,1269.7,2046.2,1037,2046.2,752.9z
	 M3752.6,2570.8c-12.8,15.7-41.3,42.1-88.6,42.1h-804h-559.5h-804c-47.3,0-75.8-26.4-88.6-42.1c-22.1-27.2-30.6-62.5-23.4-97
	c78.8-378.6,332.7-687.2,665.9-848.1c3.3-1.2,6.7-2,9.9-3.5c154.5-73.4,319.7-112.7,491.4-117c8.6,0.3,17.3,0.5,26,0.5
	c0.9,0,1.7,0,2.6,0c0.9,0,1.7,0,2.6,0c8.7,0,17.4-0.2,26-0.5c171.7,4.2,336.9,43.5,491.4,117c3.2,1.5,6.6,2.3,9.9,3.5
	c333.2,160.8,587.1,469.4,665.9,848.1C3783.2,2508.3,3774.7,2543.7,3752.6,2570.8z"/>
</svg>
