<?xml version="1.0" encoding="utf-8"?>
<!-- Generator: Adobe Illustrator 22.1.0, SVG Export Plug-In . SVG Version: 6.00 Build 0)  -->
<svg version="1.1" id="Calque_1" xmlns="http://www.w3.org/2000/svg" xmlns:xlink="http://www.w3.org/1999/xlink" x="0px" y="0px"
	 viewBox="0 0 23 23" style="enable-background:new 0 0 23 23;" xml:space="preserve">
<style type="text/css">
	.st0{fill:#525252;}
</style>
<g>
	<g>
		<path class="st0" d="M21.7,8.9l-1.5-0.2c-0.1-0.5-0.3-0.9-0.6-1.3l0.9-1.2c0.5-0.6,0.4-1.5-0.2-2.1l-1.4-1.4
			c-0.3-0.3-0.7-0.5-1.1-0.5c-0.3,0-0.7,0.1-0.9,0.3l-1.2,0.9c-0.5-0.2-0.9-0.4-1.4-0.6L14,1.3C13.9,0.6,13.2,0,12.5,0h-2
			C9.7,0,9,0.6,8.9,1.3L8.6,2.8C8.2,3,7.7,3.2,7.3,3.4L6.1,2.5C5.8,2.3,5.5,2.2,5.2,2.2C4.7,2.2,4.3,2.4,4,2.7L2.6,4.1
			C2.1,4.7,2,5.5,2.5,6.2l0.9,1.2C3.1,7.8,2.9,8.3,2.8,8.7L1.3,9C0.6,9.1,0,9.8,0,10.6v2c0,0.8,0.6,1.5,1.3,1.6l1.5,0.3
			c0.1,0.5,0.3,0.9,0.6,1.3l-0.9,1.2c-0.5,0.6-0.4,1.5,0.2,2.1l1.4,1.4c0.3,0.3,0.7,0.5,1.1,0.5c0.3,0,0.7-0.1,0.9-0.3l1.2-0.9
			c0.4,0.2,0.8,0.4,1.3,0.5l0.2,1.5C9,22.4,9.7,23,10.5,23h2c0.8,0,1.5-0.6,1.6-1.3l0.2-1.5c0.5-0.1,0.9-0.3,1.3-0.6l1.2,0.9
			c0.3,0.2,0.6,0.3,0.9,0.3c0.4,0,0.8-0.2,1.1-0.5l1.4-1.4c0.6-0.6,0.6-1.4,0.2-2.1l-0.9-1.2c0.2-0.4,0.4-0.9,0.6-1.3l1.5-0.2
			c0.8-0.1,1.3-0.8,1.3-1.6v-2C23,9.7,22.5,9.1,21.7,8.9z M18.7,13.4c-0.2,0.7-0.4,1.3-0.8,1.9c-0.2,0.3-0.2,0.7,0,0.9l1.1,1.6
			l-1.3,1.3L16.2,18c-0.3-0.2-0.6-0.2-0.9,0c-0.6,0.4-1.2,0.6-1.9,0.8c-0.3,0.1-0.6,0.3-0.6,0.7l-0.3,1.9h-1.8l-0.3-1.9
			c-0.1-0.3-0.3-0.6-0.6-0.7C9,18.6,8.4,18.3,7.8,18c-0.3-0.2-0.7-0.1-0.9,0l-1.6,1.1L4,17.8l1.1-1.6c0.2-0.3,0.2-0.6,0-0.9
			c-0.4-0.6-0.6-1.2-0.8-1.9c-0.1-0.3-0.4-0.6-0.7-0.6l-1.9-0.3v-1.8l1.9-0.3c0.3-0.1,0.6-0.3,0.7-0.6C4.4,9,4.7,8.3,5.1,7.8
			c0.2-0.3,0.2-0.6,0-0.9L3.9,5.2l1.3-1.3l1.6,1.1c0.3,0.2,0.6,0.2,0.9,0c0.6-0.4,1.2-0.6,1.9-0.8c0.3-0.1,0.6-0.4,0.6-0.7l0.3-1.9
			h1.8l0.3,1.9c0.1,0.3,0.3,0.6,0.6,0.7c0.7,0.2,1.4,0.4,2,0.8c0.3,0.2,0.6,0.2,0.9,0l1.6-1.1l1.3,1.3L18,6.8
			c-0.2,0.3-0.2,0.6,0,0.9c0.4,0.6,0.6,1.2,0.8,1.9c0.1,0.3,0.3,0.6,0.7,0.6l1.9,0.3l0,1.8l-1.9,0.3C19.1,12.8,18.8,13,18.7,13.4z"
			/>
		<path class="st0" d="M11.5,6.4c-2.8,0-5.1,2.3-5.1,5.1s2.3,5.1,5.1,5.1s5.1-2.3,5.1-5.1S14.3,6.4,11.5,6.4z M14.9,11.5
			c0,1.9-1.5,3.4-3.4,3.4s-3.4-1.5-3.4-3.4s1.5-3.4,3.4-3.4S14.9,9.6,14.9,11.5z"/>
	</g>
</g>
</svg>
