<?xml version="1.0" encoding="utf-8"?>
<!-- Generator: Adobe Illustrator 22.1.0, SVG Export Plug-In . SVG Version: 6.00 Build 0)  -->
<svg version="1.1" id="Calque_1" xmlns="http://www.w3.org/2000/svg" xmlns:xlink="http://www.w3.org/1999/xlink" x="0px" y="0px"
	 viewBox="0 0 4000 4000" style="enable-background:new 0 0 4000 4000;" xml:space="preserve">
<style type="text/css">
	.st0{fill:#525252;}
</style>
<g>
	<g>
		<g>
			<path class="st0" d="M3785.2,1565.3L3785.2,1565.3l-269.4-45.7l-4.3-13.1c-25.8-79.5-57.9-157-95.4-230.6l-6.3-12.3l158.7-222.1
				c74.1-104,62.3-244.4-28-333.7l-246.8-246.8c-49.1-49.2-114.2-76.2-183.1-76.2c-54.2,0-106,16.6-149.8,48.1l-0.1,0.1L2738,591.8
				l-12.3-6.3c-78.4-40-159.3-73.3-240.4-99l-13.3-4.2l-44.9-265.9C2406.2,91,2298.6,0,2171.3,0h-348.5C1695.6,0,1588,91,1567,216.3
				l-46.5,272.8l-13,4.3c-78.6,25.9-155.9,58.5-229.8,96.8l-12.4,6.5l-220.3-158.6c-43.9-31.6-96-48.2-150.8-48.2
				c-69.8,0-134.8,27-183,76L711,466L463.5,712.7c-89.9,89.9-101.7,230.3-28,333.8l160.4,225.3l-6.2,12.3
				c-37.1,73.5-68.7,151.3-94.1,231.3l-4.2,13.3l-265.9,44.9C100.1,1594.7,9.1,1702.3,9.1,1829.5v348.4
				c0,127.2,91,234.8,216.3,255.9l272.8,46.5l4.3,13c25.9,78.6,58.4,155.9,96.8,229.8l6.4,12.4l-157.9,219.6
				c-74,104-62.2,244.3,28,333.7l0.1,0.1l246.6,246.6c49.1,49.2,114.2,76.2,183.2,76.2c54.3,0,106.1-16.6,149.8-48.1l0.1-0.1
				l225.3-160.4l12.3,6.2c69.9,35.3,144.7,66,222.3,91.4l13.1,4.3l44.9,269.4c21,125.4,128.7,216.4,255.9,216.4h349.3
				c127.2,0,234.8-91,255.9-216.4l45.7-269.4l13.1-4.3c79.5-25.8,157.1-58,230.6-95.4l12.3-6.3l221.9,158.6
				c43.9,31.6,96,48.3,150.8,48.3c69,0,134-27.1,183.2-76.2l246.6-246.6c89.9-89.9,101.7-230.3,28-333.9l-158.7-222.9l6.2-12.3
				c38.9-76.7,71.1-154.2,95.6-230.5l4.2-13.2l269.3-44.9c125.4-21.1,216.4-128.7,216.4-255.9l0-348.3
				C4001.7,1694.2,3911.4,1586.5,3785.2,1565.3z M3749.3,2176l-353.9,59c-49.1,8.3-88.7,44.6-100.8,92.5l0,0.1
				c-31.4,121.6-79.4,237-142.6,343.2c-25.1,42.9-22.8,96.7,5.7,137.3l208,293.1l-255.7,255.7l-292.2-208
				c-40.1-28.8-94.1-31-137.6-5.6c-105.8,63-221.1,110.9-342.7,142.3l-0.2,0c-48.7,12.2-85,51.7-92.6,100.6l-0.1,0.3l-59.8,353.9
				h-361l-59-353.9c-8.3-49-44.6-88.6-92.4-100.8c-116-30-229-76.3-335.9-137.7c-41.6-23.8-98.8-21.1-136,6.4l-0.3,0.2l-294.7,209.7
				l-255.8-255.8l207.3-290.7c28.7-40.8,30.8-95,5.4-138.3c-64.8-107.9-113.2-223.1-144.1-342.5c-13.1-47.6-52.7-83.8-100.9-92.2
				l-356.3-60.6v-361l351.4-59c49.7-8.5,89.7-45.1,101.7-93.4c30.9-122.7,78-238.4,140-343.9c25-42.7,22.5-96.2-6.4-136.4l-0.1-0.1
				L638.3,895.7L894,639.9l290.8,207.3c40.7,28.7,95,30.8,138.2,5.4c108-64.8,223.2-113.3,342.4-144.1
				c47.7-13.2,83.9-52.7,92.2-100.9l60.6-356.3h361l59,351.4c8.4,49.7,45.1,89.6,93.4,101.7c123.7,31.1,241.9,79.6,351.4,144.2
				c42.8,25.1,96.8,22.8,137.4-5.8l290.3-208.8l255.9,255.8l-208,292.2c-28.9,40.1-31.1,94.1-5.6,137.5
				c63.1,106,111,221.3,142.3,342.7l0,0.2c12.2,48.7,51.7,85.1,100.6,92.6l0.3,0.1l353.9,59.8L3749.3,2176z"/>
		</g>
		<g>
			<path class="st0" d="M2004.9,1128.4c-477.8,0-866.6,388.8-866.6,866.6c0,477.8,388.8,866.6,866.6,866.6
				c477.8,0,866.6-388.8,866.6-866.6C2871.5,1517.2,2482.8,1128.4,2004.9,1128.4z M2004.9,2598.2c-332.6,0-603.2-270.6-603.2-603.2
				c0-332.6,270.6-603.2,603.2-603.2c332.6,0,603.2,270.6,603.2,603.2C2608.1,2327.6,2337.5,2598.2,2004.9,2598.2z"/>
		</g>
	</g>
</g>
</svg>
