<?xml version="1.0" encoding="utf-8"?>
<!-- Generator: Adobe Illustrator 22.1.0, SVG Export Plug-In . SVG Version: 6.00 Build 0)  -->
<svg version="1.1" id="Calque_1" xmlns="http://www.w3.org/2000/svg" xmlns:xlink="http://www.w3.org/1999/xlink" x="0px" y="0px"
	 viewBox="0 0 4000 4000" style="enable-background:new 0 0 4000 4000;" xml:space="preserve">
<style type="text/css">
	.st0{fill:#525252;}
</style>
<g>
	<path class="st0" d="M498.5,623.2V124.6C498.5,55.7,554.3,0,623.2,0c68.9,0,124.6,55.7,124.6,124.6v498.5
		c0,68.9-55.7,124.6-124.6,124.6C554.3,747.8,498.5,692.1,498.5,623.2z M2617.3,747.8c68.9,0,124.6-55.7,124.6-124.6V124.6
		C2742,55.7,2686.2,0,2617.3,0c-68.9,0-124.7,55.7-124.7,124.6v498.5C2492.7,692.1,2548.4,747.8,2617.3,747.8z M3988.3,2991.2
		c0,550.7-446.4,997.1-997.1,997.1c-550.6,0-997.1-446.4-997.1-997.1c0-550.6,446.5-997,997.1-997
		C3541.8,1994.1,3988.3,2440.6,3988.3,2991.2z M3739,2991.2c0-412.3-335.4-747.8-747.8-747.8c-412.3,0-747.8,335.5-747.8,747.8
		c0,412.4,335.4,747.8,747.8,747.8C3403.6,3739,3739,3403.6,3739,2991.2z M997.1,1495.6H498.5v498.5h498.5V1495.6z M498.5,2741.9
		h498.5v-498.6H498.5V2741.9z M1246.3,1994.1h498.6v-498.5h-498.6V1994.1z M1246.3,2741.9h498.6v-498.6h-498.6V2741.9z
		 M249.3,2966.4V1246.3h2741.9v498.5h249.3V772.6c0-151.4-120.8-274.1-270-274.1h-104v124.7c0,137.3-111.8,249.3-249.2,249.3
		c-137.5,0-249.3-112-249.3-249.3V498.5H872.4v124.7c0,137.3-111.7,249.3-249.2,249.3c-137.5,0-249.3-112-249.3-249.3V498.5H270.1
		C120.9,498.5,0,621.2,0,772.6v2193.8c0,150.9,120.9,274.1,270.1,274.1h1474.8v-249.3H270.1C258.8,2991.2,249.3,2979.5,249.3,2966.4
		z M2492.7,1994.1v-498.5h-498.5v498.5H2492.7z M3365.1,2991.2h-373.9v-373.9c0-68.9-55.7-124.6-124.6-124.6
		c-68.9,0-124.6,55.7-124.6,124.6v498.6c0,68.9,55.7,124.6,124.6,124.6h498.5c68.9,0,124.6-55.8,124.6-124.6
		C3489.7,3047,3434,2991.2,3365.1,2991.2z"/>
</g>
</svg>
