<?xml version="1.0" encoding="utf-8"?>
<!-- Generator: Adobe Illustrator 22.1.0, SVG Export Plug-In . SVG Version: 6.00 Build 0)  -->
<svg version="1.1" id="Calque_1" xmlns="http://www.w3.org/2000/svg" xmlns:xlink="http://www.w3.org/1999/xlink" x="0px" y="0px"
	 viewBox="0 0 3722 4000" style="enable-background:new 0 0 3722 4000;" xml:space="preserve">
<style type="text/css">
	.st0{fill:#525252;}
</style>
<g>
	<g>
		<path class="st0" d="M3149.6,195.2"/>
	</g>
</g>
<g>
	<g>
		<g>
			<path class="st0" d="M3637.4,1506.7c0,12.6-6.4,24.2-16.9,30.9c-10.5,6.8-23.7,7.8-35.2,2.6l-1037.4-466.7
				c-14.7-6.6-23.6-22.5-21.4-38.5c2.2-16.4,14.6-29.1,30.9-31.6l442.1-68.4l-202.9-156.9c-271.8-210.2-595.4-321.4-935.7-321.4
				c-622.1,0-1180.3,372-1421.9,947.8c-35.4,84.4-117.5,139-209.1,139c-77.2,0-148.9-38.5-191.6-103.1
				C-4.4,1376-11.9,1295,18.2,1223.8C332.4,480.4,1055.7,0,1861,0c527.1,0,1025,204.4,1402.1,575.5l95.2,93.7l217-326
				c9.1-13.7,25.9-19.7,41.5-14.9c15.4,4.7,26.1,19.3,26.1,35.5L3637.4,1506.7z"/>
		</g>
		<g>
			<path class="st0" d="M3492,2456.5c-91.6,0-173.6,54.6-209,139c-241.7,575.8-799.8,947.8-1422,947.8
				c-340.3,0-663.9-111.1-935.7-321.4l-202.9-157l442.1-68.3c16.2-2.5,28.7-15.2,30.9-31.6c2.2-16.1-6.6-32-21.4-38.6L136.7,2459.8
				c-11.4-5.2-24.6-4.2-35.2,2.6c-10.5,6.8-16.9,18.3-16.9,30.9l-5.4,1142.9c-0.1,16.5,10.4,30.7,26.1,35.5
				c15.8,4.9,32.4-1.2,41.5-14.8l217-326.1l95.1,93.7c377,371.1,874.9,575.5,1402.1,575.5c805.3,0,1528.6-480.4,1842.7-1223.8
				c30.1-71.2,22.7-152.1-20-216.6C3640.9,2495.1,3569.2,2456.5,3492,2456.5z"/>
		</g>
	</g>
</g>
</svg>
