<?xml version="1.0" encoding="utf-8"?>
<!-- Generator: Adobe Illustrator 22.1.0, SVG Export Plug-In . SVG Version: 6.00 Build 0)  -->
<svg version="1.1" id="Calque_1" xmlns="http://www.w3.org/2000/svg" xmlns:xlink="http://www.w3.org/1999/xlink" x="0px" y="0px"
	 viewBox="0 0 4000 4000" style="enable-background:new 0 0 4000 4000;" xml:space="preserve">
<style type="text/css">
	.st0{fill:#525252;}
</style>
<g>
	<g>
		<path class="st0" d="M578.1,574.1c-245.5,0-445.2,199.7-445.2,445.2v2535.5c0,245.5,199.7,445.2,445.2,445.2h2886.3
			c245.5,0,445.2-199.7,445.2-445.2V1019.3c0-245.5-199.7-445.2-445.2-445.2H3259l-234.2-421C2972.5,58.6,2872.9,0,2764.7,0
			c-50.4,0-100.3,13-144.5,37.5l-964.8,536.6H578.1z M3464.4,3700.2H578.1c-80.2,0-145.5-65.3-145.5-145.5V1218.4h3177.3v574.3h-464
			c-292.7,0-530.9,238.1-530.9,530.9v31.8c0,292.7,238.1,530.9,530.9,530.9h464v668.5C3609.9,3634.9,3544.6,3700.2,3464.4,3700.2z
			 M3187.2,2644.1c-168.2-0.1-305-137-305-305.1c0-168.2,136.8-305,305-305c168.3,0,305.1,136.8,305.1,305
			C3492.3,2507.3,3355.4,2644.1,3187.2,2644.1z M3662,1017.4h-224.3l-112.8-203h139.4c32,0,61.1,7.2,86.6,21.3
			c21.3,11.8,40.1,28.5,55.9,49.6c27.4,36.6,39.4,77.5,45.2,97.2l0,0.2L3662,1017.4z M980,1017.4H368.1l6.1-27.7
			c13.4-60.6,73.3-175.3,203.9-175.3H1345L980,1017.4z M3107.8,918.6H1652.3L2764,300.5L3107.8,918.6z"/>
	</g>
</g>
</svg>
