<?xml version="1.0" encoding="utf-8"?>
<!-- Generator: Adobe Illustrator 22.1.0, SVG Export Plug-In . SVG Version: 6.00 Build 0)  -->
<svg version="1.1" id="Calque_1" xmlns="http://www.w3.org/2000/svg" xmlns:xlink="http://www.w3.org/1999/xlink" x="0px" y="0px"
	 viewBox="0 0 23 20" style="enable-background:new 0 0 23 20;" xml:space="preserve">
<style type="text/css">
	.st0{fill:none;}
	.st1{fill:#525252;}
</style>
<g>
	<path class="st0" d="M5.8,5.3c-0.3,0-0.5,0.2-0.6,0.4h2.2l0.8-0.4H5.8z"/>
	<polygon class="st0" points="14.7,3.3 11,5.4 15.9,5.4 	"/>
	<path class="st0" d="M16.5,12.5c0.6,0,1.1-0.5,1.1-1.1c0-0.6-0.5-1.1-1.1-1.1s-1.1,0.5-1.1,1.1C15.5,12,16,12.5,16.5,12.5z"/>
	<path class="st0" d="M5.8,16.8h11.9c0.2,0,0.4-0.2,0.4-0.4v-2.6h-1.7c-1.3,0-2.4-1.1-2.4-2.4v-0.1C14,10,15.1,9,16.4,9h1.7V7H5.4
		v9.4C5.4,16.6,5.6,16.8,5.8,16.8z"/>
	<path class="st0" d="M17.7,5.3h-0.2l0.2,0.4h0.5C18.2,5.6,18,5.3,17.7,5.3z"/>
	<path class="st1" d="M17.7,4.1h-0.8l-1-1.7c-0.2-0.4-0.6-0.6-1.1-0.6c-0.2,0-0.4,0.1-0.6,0.2l-4,2.2H5.8C4.8,4.1,4,5,4,6v10.4
		c0,1,0.8,1.8,1.8,1.8h11.9c1,0,1.8-0.8,1.8-1.8V6C19.5,5,18.7,4.1,17.7,4.1z M14.8,3l1.4,2.6h-6L14.8,3z M5,5.8
		C5,5.6,5.3,5.1,5.8,5.1H9L7.5,6H4.9L5,5.8z M18.3,9.2h-1.9c-1.2,0-2.2,1-2.2,2.2v0.1c0,1.2,1,2.2,2.2,2.2h1.9v2.8
		c0,0.3-0.3,0.6-0.6,0.6H5.8c-0.3,0-0.6-0.3-0.6-0.6V6.8h13.1V9.2z M17.8,11.4c0,0.7-0.6,1.3-1.3,1.3s-1.3-0.6-1.3-1.3
		c0-0.7,0.6-1.3,1.3-1.3S17.8,10.7,17.8,11.4z M18.4,6h-0.8l-0.5-0.9h0.6c0.4,0,0.6,0.2,0.8,0.7l0,0.1L18.4,6z"/>
</g>
</svg>
