<?xml version="1.0" encoding="utf-8"?>
<!-- Generator: Adobe Illustrator 22.1.0, SVG Export Plug-In . SVG Version: 6.00 Build 0)  -->
<svg version="1.1" id="Calque_1" xmlns="http://www.w3.org/2000/svg" xmlns:xlink="http://www.w3.org/1999/xlink" x="0px" y="0px"
	 viewBox="0 0 4000 3710.2" style="enable-background:new 0 0 4000 3710.2;" xml:space="preserve">
<style type="text/css">
	.st0{fill:#525252;}
</style>
<g>
	<path class="st0" d="M1269.4,1334.6H1850c86.4,0,156.6-70.3,156.6-156.6V597.3c0-86.4-70.3-156.6-156.6-156.6h-580.6
		c-86.4,0-156.6,70.3-156.6,156.6v580.6C1112.7,1264.3,1183,1334.6,1269.4,1334.6z M1310.4,1137V638.3H1809v498.6L1310.4,1137
		L1310.4,1137z"/>
	<path class="st0" d="M2232.3,1411.4h1251c52.1,0,94.6-42.4,94.6-94.6s-42.4-94.6-94.6-94.6h-1251c-52.1,0-94.6,42.4-94.6,94.6
		C2137.8,1369,2180.2,1411.4,2232.3,1411.4z"/>
	<path class="st0" d="M2232.3,936.9h1251c52.1,0,94.6-42.4,94.6-94.6c0-52.1-42.4-94.6-94.6-94.6h-1251c-52.1,0-94.6,42.4-94.6,94.6
		C2137.8,894.5,2180.2,936.9,2232.3,936.9z"/>
	<path class="st0" d="M3483.4,2645.2H1226.2c-52.2,0-94.6,42.4-94.6,94.6c0,52.2,42.4,94.6,94.6,94.6h2257.2
		c52.1,0,94.6-42.4,94.6-94.6C3577.9,2687.6,3535.5,2645.2,3483.4,2645.2z"/>
	<path class="st0" d="M3483.4,2176.9H1226.2c-52.2,0-94.6,42.4-94.6,94.6c0,52.1,42.4,94.6,94.6,94.6h2257.2
		c52.1,0,94.6-42.4,94.6-94.6C3577.9,2219.4,3535.5,2176.9,3483.4,2176.9z"/>
	<path class="st0" d="M3483.4,1690.5H1226.2c-52.2,0-94.6,42.4-94.6,94.6s42.4,94.6,94.6,94.6h2257.2c52.1,0,94.6-42.4,94.6-94.6
		C3577.9,1733,3535.5,1690.5,3483.4,1690.5z"/>
	<path class="st0" d="M3577.9,3208.1c0-52.1-42.4-94.6-94.6-94.6H1226.2c-52.2,0-94.6,42.4-94.6,94.6c0,52.2,42.4,94.6,94.6,94.6
		h2257.2C3535.5,3302.7,3577.9,3260.2,3577.9,3208.1z"/>
	<path class="st0" d="M3747.3,0H903.4C764.1,0,650.8,113.4,650.8,252.7v241.4H252.6C113.3,494.1,0,607.5,0,746.8v2524.6
		c0,240.1,195.4,436.9,433.3,438.6l2019.7,0.2c0.9,0,1.8-0.2,2.7-0.2h207.1c0.9,0,1.8,0.2,2.7,0.2h895.6
		c241.9,0,438.8-196.8,438.8-438.8V252.7C4000,113.4,3886.6,0,3747.3,0z M2049.4,3483.2v0.1H823.1c35.6-64.2,54.5-136.7,54.5-211.9
		V252.7c0-14.3,11.6-25.8,25.8-25.8h2843.9c14.3,0,25.8,11.6,25.8,25.8v3018.6c0,116.9-95.1,211.9-212,211.9h-470.5v-0.1H2049.4
		V3483.2z M650.8,720.9v2550.4c0,115.6-93.6,210.3-209,211.9l-3-0.1c-116.9,0-211.9-95-211.9-211.8V746.8
		c0-14.3,11.6-25.8,25.8-25.8L650.8,720.9L650.8,720.9z"/>
</g>
</svg>
