<?xml version="1.0" encoding="utf-8"?>
<!-- Generator: Adobe Illustrator 22.1.0, SVG Export Plug-In . SVG Version: 6.00 Build 0)  -->
<svg version="1.1" id="Calque_1" xmlns="http://www.w3.org/2000/svg" xmlns:xlink="http://www.w3.org/1999/xlink" x="0px" y="0px"
	 viewBox="0 0 23 23" style="enable-background:new 0 0 23 23;" xml:space="preserve">
<style type="text/css">
	.st0{fill:#525252;}
</style>
<g>
	<path class="st0" d="M7.3,7.7h3.3c0.5,0,0.9-0.4,0.9-0.9V3.4c0-0.5-0.4-0.9-0.9-0.9H7.3c-0.5,0-0.9,0.4-0.9,0.9v3.3
		C6.4,7.3,6.8,7.7,7.3,7.7z M7.5,6.5V3.7h2.9v2.9H7.5z"/>
	<path class="st0" d="M12.8,8.1H20c0.3,0,0.5-0.2,0.5-0.5C20.6,7.3,20.3,7,20,7h-7.2c-0.3,0-0.5,0.2-0.5,0.5
		C12.3,7.9,12.5,8.1,12.8,8.1z"/>
	<path class="st0" d="M12.8,5.4H20c0.3,0,0.5-0.2,0.5-0.5c0-0.3-0.2-0.5-0.5-0.5h-7.2c-0.3,0-0.5,0.2-0.5,0.5
		C12.3,5.1,12.5,5.4,12.8,5.4z"/>
	<path class="st0" d="M20,15.2h-13c-0.3,0-0.5,0.2-0.5,0.5c0,0.3,0.2,0.5,0.5,0.5h13c0.3,0,0.5-0.2,0.5-0.5
		C20.6,15.5,20.3,15.2,20,15.2z"/>
	<path class="st0" d="M20,12.5h-13c-0.3,0-0.5,0.2-0.5,0.5c0,0.3,0.2,0.5,0.5,0.5h13c0.3,0,0.5-0.2,0.5-0.5
		C20.6,12.8,20.3,12.5,20,12.5z"/>
	<path class="st0" d="M20,9.7h-13c-0.3,0-0.5,0.2-0.5,0.5c0,0.3,0.2,0.5,0.5,0.5h13c0.3,0,0.5-0.2,0.5-0.5C20.6,10,20.3,9.7,20,9.7z
		"/>
	<path class="st0" d="M20.6,18.4c0-0.3-0.2-0.5-0.5-0.5h-13c-0.3,0-0.5,0.2-0.5,0.5c0,0.3,0.2,0.5,0.5,0.5h13
		C20.3,19,20.6,18.7,20.6,18.4z"/>
	<path class="st0" d="M21.5,0H5.2C4.4,0,3.7,0.7,3.7,1.5v1.4H1.5C0.7,2.8,0,3.5,0,4.3v14.5c0,1.4,1.1,2.5,2.5,2.5l11.6,0
		c0,0,0,0,0,0h1.2c0,0,0,0,0,0h5.1c1.4,0,2.5-1.1,2.5-2.5V1.5C23,0.7,22.3,0,21.5,0z M11.8,20L11.8,20l-7.1,0
		C4.9,19.7,5,19.2,5,18.8V1.5c0-0.1,0.1-0.1,0.1-0.1h16.4c0.1,0,0.1,0.1,0.1,0.1v17.4c0,0.7-0.5,1.2-1.2,1.2h-2.7v0H11.8z M3.7,4.1
		v14.7c0,0.7-0.5,1.2-1.2,1.2l0,0c-0.7,0-1.2-0.5-1.2-1.2V4.3c0-0.1,0.1-0.1,0.1-0.1H3.7z"/>
</g>
</svg>
