<?xml version="1.0" encoding="utf-8"?>
<!-- Generator: Adobe Illustrator 22.1.0, SVG Export Plug-In . SVG Version: 6.00 Build 0)  -->
<svg version="1.1" id="Calque_1" xmlns="http://www.w3.org/2000/svg" xmlns:xlink="http://www.w3.org/1999/xlink" x="0px" y="0px"
	 viewBox="0 0 64 64" style="enable-background:new 0 0 64 64;" xml:space="preserve">
<style type="text/css">
	.st0{clip-path:url(#SVGID_2_);}
	.st1{clip-path:url(#SVGID_4_);}
</style>
<g>
	<g>
		<defs>
			<rect id="SVGID_1_" x="1" y="1" width="62" height="62"/>
		</defs>
		<clipPath id="SVGID_2_">
			<use xlink:href="#SVGID_1_"  style="overflow:visible;"/>
		</clipPath>
		<g class="st0">
			<defs>
				<rect id="SVGID_3_" x="1" y="1" width="62" height="62"/>
			</defs>
			<clipPath id="SVGID_4_">
				<use xlink:href="#SVGID_3_"  style="overflow:visible;"/>
			</clipPath>
			<path class="st1" d="M18.6,28.8c1.9-5.2,5.8-8.2,11.1-8.3l0,0c2.7,0,5,1.1,6.6,3c1.4,1.7,2.2,4,2.4,6.7c0.2,2.8-0.3,5.8-1.4,8.2
				c-0.5,1.2-1.2,2.2-2,3c5-0.4,7.3-3.9,8.4-6.8c1.1-3,1.3-6.7,0.7-10.2c-0.6-3.4-1.9-6.3-3.6-7.8l0,0c-2.7-1.5-5.7-2.4-8.9-2.4
				c-4.8,0-9.2,1.9-12.6,5.2c-3.4,3.4-5.2,7.8-5.2,12.6c0,4.4,1.6,8.6,4.6,11.9c-0.4-1.1-0.7-2.4-1-3.7
				C17.1,36.3,17.4,32.1,18.6,28.8"/>
			<path class="st1" d="M28.4,26.3c-0.9,2-1.3,4.5-1.1,6.9c0.2,2.3,0.9,4.4,2.1,5.8c0.7,0.9,1.6,1.6,2.7,2c1.3-0.3,2.5-1.6,3.4-3.5
				c0.9-2.1,1.4-4.7,1.2-7.2c-0.2-2.2-0.8-4.1-1.9-5.5c-0.7-0.9-1.7-1.6-2.8-1.9l0,0C30.1,23.2,29,25.2,28.4,26.3"/>
			<path class="st1" d="M45.8,20.8c0.3,1,0.6,2.1,0.8,3.2c0.7,3.9,0.4,8-0.8,11.3c-1.9,5.2-5.8,8.2-11.1,8.3l0,0h0
				c-1.4,0-2.6-0.3-3.8-0.8c-1.2-0.5-2.3-1.4-3.2-2.5c-1.4-1.8-2.3-4.2-2.5-7c-0.2-2.8,0.2-5.7,1.3-8c0.5-1,1-1.9,1.7-2.6
				c-4.4,0.7-6.5,4-7.5,6.8c-1.1,3-1.3,6.7-0.7,10.3c0.6,3.5,1.9,6.3,3.6,7.8l0.3,0.1l0.3,0.2c2.4,1.2,5.1,1.8,7.9,1.8
				c4.8,0,9.2-1.9,12.6-5.2c3.4-3.4,5.2-7.8,5.2-12.6C49.8,27.9,48.4,23.9,45.8,20.8"/>
			<path class="st1" d="M22.1,49.3L22.1,49.3c0-0.1-0.1-0.1-0.1-0.1C22,49.2,22.1,49.3,22.1,49.3"/>
		</g>
	</g>
</g>
</svg>
